<?xml version="1.0" standalone="no"?>
<!DOCTYPE svg PUBLIC "-//W3C//DTD SVG 20010904//EN"
 "http://www.w3.org/TR/2001/REC-SVG-20010904/DTD/svg10.dtd">
<svg version="1.0" xmlns="http://www.w3.org/2000/svg"
 width="1800.000000pt" height="1800.000000pt" viewBox="0 0 1800.000000 1800.000000"
 preserveAspectRatio="xMidYMid meet">
<metadata>
Created by potrace 1.11, written by Peter Selinger 2001-2013
</metadata>
<g transform="translate(0.000000,1800.000000) scale(0.100000,-0.100000)"
fill="#000000" stroke="none">
<path d="M8150 17694 c0 -13 -3 -14 -14 -4 -12 9 -17 7 -28 -9 -7 -12 -23 -21
-38 -21 -20 0 -22 -2 -10 -10 12 -8 11 -10 -7 -10 -14 0 -23 -6 -23 -15 0 -9
-6 -12 -15 -9 -8 4 -17 -1 -21 -10 -3 -9 -12 -16 -20 -16 -8 0 -14 -4 -14 -10
0 -5 -7 -10 -15 -10 -8 0 -15 -6 -15 -12 0 -9 -4 -8 -10 2 -7 11 -10 12 -10 2
0 -16 -24 -42 -38 -42 -6 0 -12 -4 -14 -9 -1 -5 -9 -11 -17 -13 -20 -4 -49
-31 -44 -40 2 -5 -8 -8 -24 -8 -22 0 -25 -2 -13 -10 13 -8 13 -10 -1 -10 -9 0
-29 -11 -45 -25 -16 -14 -35 -25 -42 -25 -7 0 -11 -4 -8 -9 3 -5 -5 -16 -19
-25 -14 -9 -25 -14 -25 -11 0 3 -9 -4 -20 -15 -11 -11 -20 -25 -20 -31 0 -5
-5 -7 -10 -4 -6 3 -13 -1 -16 -9 -3 -9 -13 -16 -20 -16 -8 0 -17 -7 -20 -15
-4 -8 -11 -12 -17 -8 -6 3 -7 1 -3 -6 4 -6 0 -14 -11 -18 -10 -3 -34 -21 -53
-39 -80 -76 -92 -84 -103 -77 -7 4 -6 -1 2 -10 12 -15 12 -17 -2 -12 -10 4
-18 -1 -22 -15 -4 -12 -9 -19 -12 -16 -3 3 -21 -10 -39 -29 -18 -19 -38 -35
-44 -35 -6 0 -8 -4 -5 -10 3 -5 -1 -10 -9 -10 -9 0 -16 -7 -16 -15 0 -8 -7
-15 -16 -15 -8 0 -12 -4 -9 -10 3 -5 -1 -10 -10 -10 -9 0 -13 -4 -10 -10 3 -5
0 -10 -8 -10 -8 0 -17 -7 -21 -15 -3 -8 -13 -15 -21 -15 -9 0 -13 -4 -10 -10
3 -5 1 -10 -4 -10 -6 0 -11 -8 -11 -17 0 -15 -2 -16 -10 -3 -8 12 -10 10 -10
-10 0 -20 -2 -22 -10 -10 -5 8 -10 10 -10 4 0 -15 -35 -54 -48 -54 -6 0 -16
-9 -22 -20 -6 -11 -8 -20 -5 -20 3 0 -4 -9 -15 -20 -11 -11 -25 -20 -32 -20
-6 0 -9 -3 -5 -6 3 -3 0 -12 -6 -19 -9 -10 -15 -10 -26 -1 -11 8 -13 8 -8 -1
10 -16 -3 -44 -16 -36 -6 4 -8 0 -4 -10 5 -12 1 -17 -13 -17 -11 0 -19 -3 -19
-7 1 -5 1 -15 0 -23 -1 -13 -2 -13 -11 0 -8 13 -10 12 -10 -2 0 -10 -5 -18
-11 -18 -5 0 -8 -4 -4 -9 3 -5 -4 -12 -15 -16 -11 -3 -19 -9 -19 -13 3 -20 -2
-32 -11 -27 -5 3 -10 -1 -10 -9 0 -9 -5 -15 -12 -14 -7 2 -12 -4 -13 -12 -1
-8 -6 -14 -13 -12 -7 1 -12 -5 -12 -13 0 -8 -4 -15 -10 -15 -5 0 -10 -7 -10
-16 0 -8 -4 -13 -9 -10 -12 8 -23 -23 -14 -37 5 -8 2 -8 -8 0 -12 10 -18 7
-32 -16 -9 -15 -14 -31 -10 -35 3 -3 1 -6 -6 -6 -15 0 -41 -25 -41 -39 0 -6
-8 -11 -17 -11 -15 0 -15 -2 -4 -9 11 -7 10 -12 -8 -22 -11 -8 -21 -18 -21
-22 0 -5 -11 -18 -25 -29 -14 -11 -23 -24 -19 -29 3 -5 -2 -12 -10 -15 -9 -3
-16 -12 -16 -20 0 -8 -7 -14 -15 -14 -9 0 -12 -6 -8 -15 3 -10 0 -15 -8 -13
-8 2 -13 -4 -13 -14 1 -10 -3 -16 -10 -15 -6 1 -11 -8 -10 -19 0 -14 -4 -20
-13 -17 -7 3 -13 -2 -13 -11 0 -9 -7 -16 -15 -16 -8 0 -14 -3 -14 -7 3 -21 -2
-33 -12 -28 -6 4 -9 0 -7 -11 2 -11 -3 -19 -12 -19 -10 0 -15 -9 -14 -27 1
-15 -3 -25 -8 -22 -4 3 -5 11 -2 17 4 7 3 8 -1 4 -5 -4 -10 -15 -11 -25 -2 -9
-8 -18 -13 -20 -6 -2 -11 -10 -11 -18 0 -8 -6 -17 -14 -20 -8 -3 -12 -12 -9
-20 3 -9 -1 -14 -12 -14 -9 0 -14 -4 -10 -9 3 -5 -2 -16 -10 -24 -8 -9 -15
-24 -15 -34 0 -15 -2 -16 -10 -3 -8 12 -10 11 -10 -7 0 -13 -5 -23 -11 -23 -5
0 -8 -4 -4 -9 3 -5 1 -12 -5 -16 -6 -4 -8 -11 -5 -16 3 -5 -1 -6 -9 -3 -12 5
-16 -1 -16 -21 0 -14 -4 -24 -9 -21 -5 4 -12 -8 -16 -25 -5 -24 -9 -28 -17
-18 -6 10 -8 7 -6 -11 2 -16 -2 -24 -9 -22 -11 2 -14 -7 -13 -33 1 -3 -6 -13
-15 -21 -8 -9 -15 -22 -15 -30 0 -8 -4 -14 -10 -14 -5 0 -10 -7 -10 -16 0 -8
-4 -13 -8 -10 -7 4 -11 -9 -14 -51 -1 -9 -5 -10 -14 -2 -9 7 -12 6 -10 -8 2
-10 -3 -22 -11 -28 -7 -5 -14 -22 -15 -37 -1 -15 -6 -24 -10 -22 -7 5 -9 -1
-8 -21 1 -3 -6 -13 -15 -21 -8 -9 -13 -19 -10 -24 3 -4 -2 -13 -10 -20 -8 -7
-15 -21 -15 -31 0 -11 -4 -19 -10 -19 -5 0 -10 -11 -10 -24 0 -13 -7 -29 -15
-36 -8 -7 -15 -20 -15 -30 0 -26 -26 -71 -36 -62 -4 4 -2 -1 5 -10 11 -15 11
-18 -2 -18 -10 0 -14 -9 -12 -29 2 -20 -1 -28 -10 -24 -9 3 -12 -5 -11 -27 1
-19 -2 -29 -9 -26 -9 3 -15 -18 -18 -71 0 -7 -4 -10 -9 -7 -8 5 -11 -5 -11
-39 0 -10 -5 -16 -12 -14 -6 3 -12 -1 -12 -8 0 -8 7 -11 16 -8 14 5 14 4 1 -8
-24 -21 -47 -54 -32 -45 16 10 15 -6 -2 -29 -8 -11 -11 -26 -8 -34 4 -10 1
-12 -9 -6 -12 8 -12 6 0 -9 12 -14 12 -17 1 -14 -10 2 -14 -6 -14 -24 1 -16
-2 -28 -6 -28 -5 0 -6 -10 -3 -22 4 -19 3 -20 -6 -8 -9 13 -11 13 -11 -2 0 -9
6 -19 13 -21 10 -4 10 -6 0 -6 -7 -1 -13 -14 -13 -30 0 -16 -6 -32 -12 -34
-10 -4 -10 -6 0 -6 10 -1 10 -5 -2 -17 -9 -8 -14 -20 -10 -25 3 -6 0 -17 -8
-26 -9 -12 -9 -15 -1 -9 9 5 11 2 7 -8 -3 -9 -9 -14 -13 -12 -4 3 -6 -12 -6
-32 1 -20 -5 -49 -12 -64 -18 -37 -16 -46 3 -22 15 17 15 17 0 -8 -10 -16 -16
-50 -16 -83 0 -38 -4 -54 -11 -49 -8 5 -8 1 0 -14 9 -16 8 -24 -5 -36 -10 -10
-11 -16 -3 -16 7 0 8 -4 2 -12 -5 -7 -8 -24 -7 -38 1 -14 -3 -33 -8 -44 -6
-11 -6 -16 0 -12 12 7 7 -35 -7 -63 -7 -12 -8 -21 -2 -21 5 0 12 6 14 13 3 6
4 0 3 -16 -2 -15 -6 -30 -11 -35 -4 -4 -5 -2 -1 5 3 6 3 14 -2 16 -9 6 -9 -80
1 -89 4 -4 2 -13 -4 -21 -9 -10 -8 -13 1 -13 9 0 10 -3 1 -13 -8 -10 -7 -17 2
-27 9 -10 9 -11 0 -6 -7 4 -13 2 -13 -3 0 -6 5 -11 12 -11 9 0 9 -3 0 -12 -16
-16 -15 -31 1 -22 8 5 8 2 -2 -9 -10 -13 -10 -17 -1 -17 10 0 10 -3 0 -15 -10
-12 -10 -15 1 -15 11 0 11 -3 -1 -11 -11 -8 -12 -12 -2 -16 6 -2 12 -9 12 -14
0 -6 -4 -8 -9 -5 -12 8 -7 -94 5 -102 5 -4 9 -36 9 -72 -1 -36 5 -75 12 -87
11 -19 10 -24 -5 -33 -16 -11 -16 -11 1 -6 15 5 17 -2 19 -52 1 -73 2 -74 13
-92 5 -8 10 -28 10 -43 0 -15 7 -32 15 -37 13 -9 13 -10 0 -10 -12 0 -12 -2
-2 -9 8 -4 13 -11 13 -15 -1 -3 -1 -18 -1 -33 0 -22 2 -25 10 -13 8 12 10 10
10 -8 0 -16 -4 -21 -12 -16 -10 6 -10 4 0 -7 6 -7 12 -21 12 -31 0 -10 4 -18
10 -18 5 0 9 -3 8 -7 -4 -17 14 -73 23 -73 6 0 8 -4 5 -8 -3 -5 2 -21 10 -36
7 -16 14 -39 14 -52 0 -14 7 -27 15 -30 8 -4 13 -10 10 -14 -8 -12 6 -41 16
-34 5 3 9 -3 9 -13 0 -24 22 -73 33 -73 5 0 5 -4 2 -10 -3 -5 -1 -10 4 -10 6
0 10 -6 8 -12 -1 -7 4 -12 12 -10 12 3 12 1 1 -15 -8 -10 -10 -15 -6 -11 10 8
43 -31 38 -45 -1 -4 5 -10 13 -13 8 -4 15 -12 15 -20 0 -8 5 -14 10 -14 6 0
10 -10 10 -22 0 -19 2 -20 10 -8 8 13 10 13 10 -2 0 -17 126 -153 141 -153 5
0 14 -6 21 -14 11 -12 10 -12 -2 -5 -8 4 19 -26 60 -68 41 -41 78 -73 83 -71
7 4 11 -12 8 -30 -1 -5 3 -6 8 -3 11 7 50 -28 67 -59 6 -11 25 -30 43 -42 18
-12 33 -25 34 -30 1 -4 6 -7 11 -5 5 2 6 -5 2 -14 -4 -12 -2 -15 9 -10 9 3 15
0 15 -10 0 -8 4 -13 9 -10 5 3 11 -4 14 -15 3 -12 10 -18 16 -14 6 3 11 1 11
-6 0 -15 76 -89 84 -82 3 4 6 -3 6 -15 0 -12 5 -22 11 -22 16 0 39 -26 31 -35
-4 -5 1 -5 11 -2 16 6 22 -3 18 -26 -1 -5 3 -6 9 -2 5 3 13 -1 16 -9 3 -9 15
-16 25 -16 12 0 19 -7 19 -19 0 -10 7 -22 16 -25 8 -3 12 -10 9 -16 -6 -9 16
-15 39 -11 5 1 3 -6 -5 -15 -9 -12 -10 -15 -1 -10 7 4 15 1 18 -8 3 -9 10 -13
15 -10 5 3 9 0 9 -6 0 -15 26 -41 34 -33 6 6 10 -13 7 -31 -1 -5 5 -6 14 -3 8
4 15 2 15 -4 0 -14 153 -164 164 -161 5 2 6 -4 2 -13 -3 -9 -2 -13 4 -10 6 3
13 -1 16 -9 3 -9 10 -13 15 -10 5 3 9 -2 9 -10 0 -9 5 -16 10 -16 6 0 10 -6
10 -13 0 -6 14 -18 31 -26 19 -8 28 -18 25 -28 -3 -8 -1 -11 4 -8 6 3 13 -1
16 -9 3 -9 13 -16 21 -16 8 0 12 -4 8 -9 -3 -5 4 -13 16 -16 15 -5 18 -10 10
-15 -8 -4 0 -13 23 -24 20 -9 36 -22 36 -28 0 -15 57 -68 64 -61 6 6 10 -12 7
-29 0 -5 4 -8 9 -8 6 0 44 -34 85 -76 41 -41 79 -72 85 -69 6 4 10 3 9 -2 -1
-4 -1 -17 0 -28 1 -15 3 -17 10 -6 7 11 10 9 16 -8 3 -12 11 -19 16 -16 5 4 9
1 9 -5 0 -15 26 -41 34 -33 3 4 6 0 6 -7 0 -15 78 -93 103 -103 9 -3 17 -14
17 -24 0 -10 13 -24 29 -31 20 -9 28 -18 24 -28 -4 -10 0 -12 13 -7 14 5 16 3
11 -11 -4 -10 -3 -15 3 -11 6 3 13 -1 16 -9 3 -9 10 -13 15 -10 5 3 9 -4 9
-15 0 -14 6 -21 19 -21 11 0 28 -15 41 -35 13 -22 30 -35 43 -36 12 0 16 -3 9
-6 -9 -3 -7 -10 9 -24 12 -10 27 -19 33 -19 6 0 5 -4 -2 -9 -10 -6 -5 -11 17
-21 17 -7 31 -17 31 -22 0 -14 27 -38 34 -31 3 4 6 0 6 -8 0 -8 11 -23 25 -33
13 -10 22 -22 19 -27 -3 -5 3 -9 13 -9 25 0 43 -19 36 -36 -4 -10 0 -12 13 -7
14 5 16 3 11 -11 -4 -10 -3 -15 3 -11 6 3 13 -1 16 -9 3 -9 10 -13 15 -10 8 5
13 -10 10 -29 -1 -5 3 -6 7 -3 5 3 20 -8 32 -24 13 -17 29 -30 37 -30 8 0 12
-3 10 -8 -2 -4 6 -17 19 -29 15 -15 24 -18 27 -10 3 7 6 2 6 -11 1 -13 5 -21
10 -17 5 3 12 -4 16 -15 4 -11 11 -18 16 -15 5 4 9 1 9 -5 0 -17 49 -62 60
-55 6 4 9 1 8 -7 -2 -7 3 -12 11 -10 12 3 12 0 1 -13 -11 -13 -10 -14 5 -8 15
5 17 3 12 -11 -4 -9 -3 -15 2 -11 5 3 12 1 16 -5 4 -6 11 -7 17 -4 7 4 8 2 4
-4 -4 -7 -3 -12 3 -12 6 0 7 -8 4 -17 -6 -16 -5 -17 13 -3 10 8 16 11 12 6
-11 -13 26 -42 49 -38 13 2 20 8 17 13 -3 5 2 9 10 9 8 0 19 8 25 17 5 10 13
15 16 11 4 -4 18 5 32 20 14 15 29 28 34 28 5 1 14 2 20 3 5 0 8 5 5 9 -2 4 5
9 16 9 12 1 24 6 27 11 10 17 82 53 92 46 5 -3 8 0 7 8 -2 7 3 12 10 10 6 -1
12 2 12 8 0 5 11 10 25 10 14 0 25 3 25 8 0 13 67 45 79 38 6 -4 11 0 11 8 0
10 9 16 25 16 14 0 25 6 25 13 0 9 12 13 34 12 24 0 32 3 26 10 -6 7 0 11 16
13 31 2 46 11 40 21 -3 4 9 5 26 3 21 -3 29 -1 24 7 -5 7 -1 9 8 5 9 -3 16 -1
16 6 0 6 4 8 10 5 5 -3 24 1 42 9 18 9 45 17 60 18 17 1 24 6 18 13 -5 7 8 10
40 9 29 0 48 4 47 10 -1 5 13 10 31 10 17 0 32 3 32 7 0 3 12 4 26 1 19 -3 25
-1 20 7 -7 11 31 16 78 11 13 -1 16 2 10 12 -6 11 -5 11 8 0 12 -10 18 -9 28
3 7 8 15 13 19 11 3 -2 16 0 27 4 17 7 20 14 17 34 -3 15 -9 29 -14 32 -5 3
-4 15 3 27 6 12 13 36 13 54 2 25 -1 30 -14 26 -13 -5 -14 -3 -3 8 14 15 17
63 2 54 -6 -3 -7 1 -4 9 3 9 9 14 13 12 3 -2 7 8 7 22 1 15 -1 21 -3 15 -3 -7
-9 -13 -15 -13 -6 0 -3 11 6 24 10 15 12 27 6 31 -6 3 -10 11 -10 16 0 6 4 7
10 4 6 -3 7 1 4 9 -3 9 -10 13 -15 10 -5 -3 -6 2 -3 10 3 9 10 13 15 10 5 -3
6 2 3 10 -3 9 -11 13 -18 9 -6 -3 -2 3 8 15 11 12 16 25 13 29 -4 3 -7 1 -7
-5 0 -7 -5 -12 -11 -12 -7 0 -5 9 5 24 10 15 12 27 6 31 -6 3 -10 11 -10 16 0
6 4 7 10 4 6 -3 7 1 4 9 -3 9 -10 13 -15 10 -5 -3 -6 2 -3 10 3 9 10 13 15 10
5 -3 6 2 3 10 -3 9 -11 13 -18 9 -6 -3 -6 -1 2 8 14 15 17 63 2 54 -6 -3 -7 1
-4 9 3 9 9 14 14 11 4 -2 5 7 2 20 -2 14 -8 28 -13 31 -5 3 -4 15 3 27 6 12
13 36 13 54 2 25 -1 30 -14 26 -13 -5 -14 -3 -3 8 14 15 17 63 2 54 -6 -3 -7
1 -4 9 3 9 9 14 13 12 3 -2 7 8 7 22 1 15 -1 21 -3 15 -3 -7 -9 -13 -15 -13
-6 0 -3 11 6 24 10 15 12 27 6 31 -6 3 -10 11 -10 16 0 6 4 7 10 4 6 -3 7 1 4
9 -3 9 -10 13 -15 10 -5 -3 -6 2 -3 10 3 9 10 13 15 10 5 -3 6 2 3 10 -3 9
-11 13 -18 9 -6 -3 -2 3 8 15 11 12 16 25 13 29 -4 3 -7 1 -7 -5 0 -7 -5 -12
-11 -12 -7 0 -5 9 5 24 10 15 12 27 6 31 -6 3 -10 11 -10 16 0 6 4 7 10 4 6
-3 7 1 4 9 -3 9 -10 13 -15 10 -5 -3 -6 2 -3 10 3 9 10 13 15 10 5 -3 6 2 3
10 -3 9 -11 13 -18 9 -6 -3 -6 -1 2 8 14 15 17 63 2 54 -6 -3 -7 1 -4 9 3 9 9
14 14 11 4 -2 5 7 2 20 -2 14 -8 28 -13 31 -5 3 -4 15 3 27 6 12 13 36 13 54
2 25 -1 30 -14 26 -13 -5 -14 -3 -3 8 14 15 17 63 2 54 -6 -3 -7 1 -4 9 3 9 9
14 13 12 3 -2 7 8 7 22 1 15 -1 21 -3 15 -3 -7 -9 -13 -15 -13 -6 0 -3 11 6
24 10 15 12 27 6 31 -6 3 -10 11 -10 16 0 6 4 7 10 4 6 -3 7 1 4 9 -3 9 -10
13 -15 10 -5 -3 -6 2 -3 10 3 9 10 13 15 10 5 -3 6 2 3 10 -3 9 -11 13 -18 9
-6 -3 -2 3 8 15 11 12 16 25 13 29 -4 3 -7 1 -7 -5 0 -7 -5 -12 -11 -12 -7 0
-5 9 5 24 10 15 12 27 6 31 -6 3 -10 11 -10 16 0 6 4 7 10 4 6 -3 7 1 4 9 -3
9 -10 13 -15 10 -5 -3 -6 2 -3 10 3 9 10 13 15 10 5 -3 6 2 3 10 -3 9 -11 13
-18 9 -6 -3 -6 -1 2 8 14 15 17 63 2 54 -6 -3 -7 1 -4 9 3 9 9 14 14 11 4 -2
5 7 2 20 -2 14 -8 28 -13 31 -5 3 -4 15 3 27 6 12 13 36 13 54 2 25 -1 30 -14
26 -13 -5 -14 -3 -3 8 14 15 17 63 2 54 -6 -3 -7 1 -4 9 3 9 9 14 13 12 3 -2
7 8 7 22 1 15 -1 21 -3 15 -3 -7 -9 -13 -15 -13 -6 0 -3 11 6 24 10 15 12 27
6 31 -6 3 -10 11 -10 16 0 6 4 7 10 4 6 -3 7 1 4 9 -3 9 -10 13 -15 10 -5 -3
-6 2 -3 10 3 9 10 13 15 10 5 -3 6 2 3 10 -3 9 -11 13 -18 9 -6 -3 -2 3 8 15
11 12 16 25 13 29 -4 3 -7 1 -7 -5 0 -7 -4 -12 -9 -12 -13 0 -1 40 13 41 6 0
2 4 -9 9 l-20 9 20 0 c17 1 17 3 5 11 -8 5 -10 10 -5 10 14 0 14 312 0 322 -7
5 -6 8 1 8 12 0 13 38 1 58 -5 6 -5 12 0 12 4 0 8 15 8 34 0 19 -3 32 -7 29
-5 -2 -8 1 -8 6 0 6 3 11 8 11 4 0 7 15 7 34 0 19 -3 32 -7 29 -5 -2 -8 1 -8
6 0 6 3 11 8 11 4 0 7 15 7 34 0 19 -3 32 -7 29 -5 -2 -8 1 -8 6 0 6 3 11 8
11 11 0 9 314 -3 322 -7 5 -6 8 1 8 12 0 13 38 1 58 -5 6 -5 12 0 12 4 0 8 15
8 34 0 19 -3 32 -7 29 -5 -2 -8 1 -8 6 0 6 3 11 8 11 4 0 7 15 7 34 0 19 -3
32 -7 29 -5 -2 -8 1 -8 6 0 6 3 11 8 11 4 0 7 15 7 34 0 19 -3 32 -7 29 -5 -2
-8 1 -8 6 0 6 3 11 8 11 11 0 9 74 -3 82 -7 5 -7 8 1 8 13 0 11 79 -2 88 -5 4
-9 14 -9 22 1 8 -3 24 -9 35 -12 24 -14 34 -17 94 -2 25 -7 49 -12 52 -4 3 -9
20 -9 37 -1 18 -5 32 -11 32 -5 0 -3 8 4 17 8 9 9 14 3 10 -16 -9 -21 9 -20
60 1 23 -2 39 -7 36 -5 -3 -6 -12 -3 -20 3 -8 1 -11 -5 -8 -5 4 -9 14 -7 23 3
24 -11 74 -20 68 -4 -2 -7 11 -6 30 1 19 -3 34 -8 34 -6 0 -7 7 -4 16 3 8 2
13 -3 10 -5 -3 -8 6 -8 21 0 15 -6 29 -12 31 -6 2 -11 12 -11 22 0 10 -5 20
-11 22 -6 2 -11 20 -12 40 -1 29 -4 35 -14 26 -10 -8 -13 -6 -13 11 0 29 -2
34 -17 50 -8 7 -12 20 -9 27 3 7 -7 23 -22 35 -15 11 -26 23 -24 25 6 11 1 34
-7 29 -5 -3 -11 5 -13 17 -2 13 -9 22 -17 20 -12 -3 -12 0 0 14 9 12 9 15 2
10 -8 -4 -13 -2 -13 4 0 6 -4 8 -10 5 -9 -6 -15 16 -11 39 1 5 -5 6 -13 3 -10
-4 -13 -1 -9 9 3 8 -1 14 -11 14 -9 0 -16 8 -16 19 0 11 -9 23 -20 26 -11 3
-20 13 -20 21 0 8 -7 17 -15 20 -8 4 -15 12 -15 20 0 8 -3 13 -7 13 -5 -1 -15
-1 -23 0 -13 1 -13 2 0 11 11 7 12 10 2 10 -16 0 -42 24 -42 39 0 5 -9 8 -20
6 -12 -2 -21 3 -25 16 -4 10 -11 19 -16 19 -6 0 -7 5 -4 10 3 6 -3 10 -15 10
-12 0 -18 5 -15 10 3 6 -2 10 -11 10 -10 0 -24 7 -33 15 -9 8 -30 28 -48 45
-17 16 -36 30 -42 30 -5 0 -17 10 -25 22 -9 12 -16 19 -16 15 0 -4 -9 1 -19
10 -11 9 -17 21 -14 26 3 6 1 7 -5 3 -10 -6 -37 12 -83 56 -9 9 -20 14 -23 11
-3 -4 -6 1 -6 10 0 15 -17 22 -43 18 -4 0 -6 2 -6 6 1 5 1 15 0 23 -1 12 -3
13 -10 1 -7 -11 -10 -9 -16 9 -6 18 -9 20 -16 9 -7 -12 -9 -12 -9 0 0 17 -40
52 -51 45 -5 -3 -6 3 -2 12 4 12 3 15 -5 10 -7 -4 -12 -2 -12 4 0 6 -11 15
-25 20 -14 5 -25 14 -25 20 0 6 -4 8 -10 5 -5 -3 -10 1 -10 10 0 9 -4 13 -10
10 -5 -3 -10 1 -10 10 0 11 -5 15 -14 12 -9 -4 -24 6 -38 23 -13 17 -32 30
-43 30 -17 0 -17 2 -5 10 11 7 12 10 2 10 -7 0 -20 7 -29 15 -8 8 -20 12 -26
8 -7 -4 -8 0 -4 11 4 9 3 15 -1 12 -5 -3 -23 8 -41 24 -18 17 -37 30 -42 30
-6 0 -7 5 -4 10 3 6 -4 10 -17 10 -18 0 -20 2 -8 10 12 8 11 10 -7 10 -14 0
-23 6 -23 16 0 10 -6 14 -15 10 -13 -5 -19 5 -16 26 0 4 -6 5 -14 2 -8 -4 -15
-1 -15 6 0 6 -5 8 -12 4 -6 -4 -8 -3 -4 4 7 12 -33 44 -46 36 -5 -3 -8 -2 -7
3 1 4 1 15 0 23 -1 13 -2 13 -11 0 -9 -13 -10 -13 -11 0 -1 8 -1 18 0 23 0 4
-6 7 -14 7 -8 0 -15 7 -15 16 0 8 -4 12 -10 9 -6 -3 -10 4 -10 17 0 18 -2 20
-10 8 -8 -12 -10 -10 -10 8 0 13 -4 20 -10 17 -5 -3 -10 1 -10 9 0 9 -7 16
-16 16 -12 0 -15 7 -12 25 4 19 2 23 -7 15 -15 -12 -25 -3 -18 16 3 8 -2 17
-11 20 -9 3 -16 10 -16 16 0 5 5 6 11 3 6 -4 5 2 -2 13 -7 12 -17 18 -21 16
-4 -3 -8 2 -8 10 0 9 -4 16 -10 16 -5 0 -10 12 -10 26 0 17 -4 24 -13 21 -9
-3 -13 4 -12 22 0 14 -5 32 -12 39 -7 7 -13 22 -13 33 0 11 -4 17 -10 14 -6
-4 -10 6 -10 23 0 18 -6 32 -15 36 -12 4 -13 10 -6 25 8 14 7 22 -5 32 -12 10
-12 14 -2 20 9 6 8 10 -5 15 -15 5 -15 9 -5 22 10 12 10 14 1 8 -10 -5 -13 5
-13 38 0 25 -4 46 -10 46 -5 0 -10 5 -10 11 0 5 4 8 8 5 5 -3 9 1 9 9 0 8 -4
12 -9 8 -6 -3 -9 3 -8 13 1 11 1 21 0 24 -2 6 -3 115 -1 183 1 27 5 46 9 43 5
-3 9 1 9 9 0 8 -4 12 -9 9 -4 -3 -8 0 -8 5 0 6 5 11 10 11 6 0 10 15 10 33 0
18 6 39 13 46 10 11 10 13 0 7 -7 -4 -13 -3 -13 2 0 6 6 12 14 15 9 4 13 20
12 47 -2 37 -1 40 11 24 13 -18 14 -18 12 1 -1 11 -1 31 0 45 1 20 3 22 11 10
8 -12 10 -9 10 13 0 16 7 35 15 44 8 8 13 18 10 23 -3 4 2 13 10 20 8 7 15 19
15 26 0 16 21 56 34 66 5 3 11 13 12 21 3 20 36 57 46 51 4 -3 5 2 2 10 -4 11
0 16 12 16 16 0 17 2 4 10 -11 7 -11 10 -2 10 7 0 10 5 7 10 -3 6 1 10 9 10 9
0 16 5 16 11 0 6 7 17 15 26 8 8 12 20 8 26 -4 7 -1 7 9 -1 14 -11 16 -10 14
12 -2 17 1 23 10 19 8 -3 14 2 14 11 0 9 7 16 15 16 8 0 14 6 13 13 -2 6 3 11
10 10 6 -2 11 0 11 5 -3 19 2 33 11 27 6 -3 10 1 10 10 0 9 4 14 9 11 5 -3 11
5 13 19 4 21 1 25 -18 25 -16 0 -24 -6 -24 -16z m1636 -3959 c-1 -8 -5 -17 -8
-21 -5 -4 -4 16 1 34 3 9 9 -1 7 -13z m0 -400 c-1 -8 -5 -17 -8 -21 -5 -4 -4
16 1 34 3 9 9 -1 7 -13z m-4351 -35 c3 -5 1 -10 -4 -10 -6 0 -11 5 -11 10 0 6
2 10 4 10 3 0 8 -4 11 -10z m4352 -85 c0 -8 -4 -12 -9 -9 -5 3 -6 10 -3 15 9
13 12 11 12 -6z m-1 -520 c-1 -8 -5 -17 -8 -21 -5 -4 -4 16 1 34 3 9 9 -1 7
-13z m1 -120 c0 -8 -4 -12 -9 -9 -5 3 -6 10 -3 15 9 13 12 11 12 -6z m-4170
-97 c-3 -8 -6 -5 -6 6 -1 11 2 17 5 13 3 -3 4 -12 1 -19z m4173 -518 c0 -5 -5
-10 -11 -10 -5 0 -7 5 -4 10 3 6 8 10 11 10 2 0 4 -4 4 -10z m0 -640 c0 -5 -5
-10 -11 -10 -5 0 -7 5 -4 10 3 6 8 10 11 10 2 0 4 -4 4 -10z m0 -640 c0 -5 -5
-10 -11 -10 -5 0 -7 5 -4 10 3 6 8 10 11 10 2 0 4 -4 4 -10z m0 -640 c0 -5 -5
-10 -11 -10 -5 0 -7 5 -4 10 3 6 8 10 11 10 2 0 4 -4 4 -10z"/>
<path d="M14850 16153 c-8 -2 -25 -10 -38 -16 -18 -8 -28 -8 -44 2 -11 7 -17
8 -14 3 4 -6 -26 -10 -76 -11 -48 -1 -87 -6 -97 -14 -12 -9 -13 -9 -7 1 5 8
-1 12 -19 12 -14 0 -24 -4 -21 -8 3 -5 -1 -9 -9 -9 -8 0 -15 5 -15 11 0 5 -6
1 -14 -10 -14 -18 -15 -18 -22 -1 -4 12 -9 15 -14 8 -3 -7 -31 -12 -61 -13
-30 -1 -57 -7 -61 -12 -5 -7 -8 -6 -8 3 0 11 -3 11 -17 0 -9 -8 -14 -9 -10 -2
8 13 -18 12 -30 -2 -5 -4 -1 -5 7 0 8 5 12 4 8 0 -5 -5 -20 -10 -35 -11 -20
-2 -24 -1 -13 6 8 5 12 12 8 15 -3 3 -12 0 -19 -7 -13 -12 -68 -19 -139 -18
-20 0 -22 -2 -10 -10 21 -13 3 -13 -22 1 -11 6 -18 7 -15 1 4 -5 -19 -10 -55
-11 -34 -1 -65 -7 -69 -13 -4 -6 -15 -8 -24 -4 -9 3 -22 3 -28 -1 -7 -4 -27
-8 -46 -10 -18 -1 -39 -7 -45 -12 -6 -5 -29 -9 -51 -9 -64 0 -67 -1 -59 -14 5
-8 0 -7 -11 2 -11 9 -16 10 -11 3 5 -9 -2 -13 -26 -14 -80 -3 -92 -5 -96 -16
-2 -7 -8 -13 -13 -13 -4 0 -6 8 -2 18 5 15 4 15 -9 -1 -7 -10 -18 -18 -23 -17
-23 5 -46 -1 -41 -9 7 -11 -21 -8 -31 4 -4 4 -2 5 6 0 10 -5 12 -4 7 4 -4 6
-12 9 -17 5 -5 -3 -7 -10 -4 -15 6 -9 1 -10 -59 -13 -16 -1 -31 -7 -33 -13 -2
-6 -16 -9 -29 -7 -14 3 -23 1 -20 -4 3 -5 -6 -8 -19 -6 -14 1 -25 -1 -25 -5 0
-6 -17 -10 -57 -13 -7 -1 -13 -5 -13 -10 0 -4 -13 -8 -28 -8 -15 0 -34 -6 -41
-12 -11 -11 -12 -10 -6 2 6 12 5 13 -6 3 -7 -7 -23 -13 -36 -13 -13 0 -23 -6
-23 -12 0 -9 -4 -8 -10 2 -8 13 -10 13 -10 -1 0 -13 -9 -17 -35 -15 -20 1 -35
-3 -35 -10 0 -6 -14 -11 -32 -12 -17 0 -34 -5 -37 -10 -3 -5 -24 -12 -46 -16
-22 -5 -43 -12 -46 -18 -4 -6 -20 -11 -37 -11 -17 -1 -28 -5 -26 -9 3 -5 -8
-8 -24 -8 -16 0 -35 -7 -42 -15 -8 -10 -21 -13 -33 -9 -16 5 -19 3 -14 -10 4
-10 3 -15 -1 -12 -5 3 -21 -1 -36 -9 -14 -8 -24 -11 -22 -6 3 4 -1 8 -9 8 -8
0 -12 -4 -10 -8 5 -6 -32 -22 -47 -20 -5 1 -8 -4 -8 -10 0 -7 -9 -9 -21 -6
-12 3 -22 0 -26 -9 -3 -8 -18 -14 -34 -14 -17 0 -32 -6 -35 -14 -3 -8 -12 -12
-20 -9 -8 3 -14 -1 -14 -10 0 -9 -9 -14 -22 -13 -13 0 -22 -4 -21 -11 2 -6 -5
-11 -15 -11 -23 1 -46 -5 -53 -15 -3 -5 -15 -10 -25 -11 -10 -2 -18 -8 -17
-14 2 -6 -6 -9 -17 -7 -13 2 -20 -2 -20 -11 0 -8 -10 -14 -25 -14 -14 0 -25
-3 -25 -7 0 -5 -11 -13 -25 -20 -19 -8 -24 -8 -19 0 3 7 -2 3 -10 -7 -9 -11
-16 -16 -16 -10 0 5 -6 2 -13 -6 -12 -15 -30 -22 -54 -23 -7 0 -10 -4 -7 -9 5
-7 -3 -10 -22 -7 -4 0 -10 -5 -15 -13 -5 -7 -13 -14 -19 -14 -5 -1 -15 -2 -21
-3 -5 0 -7 -5 -4 -11 3 -5 -3 -10 -14 -10 -11 0 -24 -8 -30 -17 -5 -10 -13
-18 -18 -18 -4 0 -7 -4 -5 -9 2 -5 -3 -4 -11 2 -10 9 -16 7 -27 -8 -8 -11 -25
-20 -37 -20 -14 0 -23 -6 -23 -15 0 -8 -6 -14 -12 -13 -7 2 -12 -3 -10 -9 1
-8 -8 -13 -21 -13 -12 0 -29 -9 -37 -19 -7 -11 -17 -18 -22 -15 -4 3 -8 0 -8
-5 0 -6 -7 -11 -16 -11 -8 0 -13 -4 -10 -9 7 -11 -22 -23 -36 -14 -7 3 -8 1
-4 -5 4 -7 1 -12 -8 -12 -8 0 -18 -5 -22 -12 -5 -7 -3 -8 6 -3 9 5 11 4 6 -3
-4 -7 -16 -12 -27 -12 -11 0 -17 -4 -14 -10 3 -5 -3 -10 -15 -10 -12 0 -18 -4
-15 -10 3 -5 -1 -10 -9 -10 -9 0 -16 -5 -16 -11 0 -5 -3 -8 -7 -6 -10 6 -34
-19 -26 -27 4 -3 -1 -6 -10 -6 -9 0 -17 -4 -17 -10 0 -5 -7 -10 -15 -10 -8 0
-15 -8 -15 -17 0 -15 -2 -16 -10 -3 -9 13 -10 13 -11 0 -1 -8 -1 -18 0 -22 0
-5 -2 -7 -7 -7 -19 3 -33 -2 -27 -10 3 -5 -4 -12 -15 -16 -11 -4 -18 -11 -15
-16 4 -5 -1 -9 -9 -9 -9 0 -16 -4 -16 -10 0 -5 -7 -10 -15 -10 -9 0 -12 -6 -8
-17 5 -12 2 -15 -10 -10 -11 4 -17 1 -17 -8 0 -8 -7 -15 -16 -15 -8 0 -12 -5
-9 -10 3 -6 -1 -13 -9 -16 -9 -3 -13 -10 -10 -15 5 -8 -9 -13 -28 -10 -4 0 -5
-6 -2 -13 3 -8 -4 -19 -16 -26 -11 -6 -18 -15 -15 -21 4 -5 3 -8 -2 -7 -4 2
-9 0 -11 -4 -4 -15 -37 -45 -44 -41 -5 2 -8 -5 -8 -17 0 -12 -4 -18 -10 -15
-5 3 -11 1 -11 -4 -1 -6 -2 -17 -3 -23 -1 -7 -7 -12 -14 -11 -7 2 -12 -4 -12
-12 0 -8 -5 -15 -11 -15 -5 0 -8 -4 -5 -8 3 -5 -7 -22 -23 -39 -15 -17 -27
-37 -25 -46 1 -10 -3 -14 -12 -10 -10 4 -14 -3 -14 -22 0 -15 -4 -24 -10 -20
-5 3 -10 -1 -10 -10 0 -10 -5 -13 -12 -9 -8 5 -8 2 1 -10 12 -15 12 -17 0 -14
-8 2 -14 -5 -14 -15 0 -10 -5 -21 -11 -25 -6 -4 -14 -19 -18 -34 -3 -16 -11
-28 -17 -28 -6 0 -8 -4 -4 -9 3 -5 -2 -16 -10 -25 -9 -8 -16 -18 -15 -21 2
-31 -2 -45 -10 -40 -6 4 -10 -8 -10 -30 0 -22 -4 -34 -10 -30 -6 3 -11 -6 -12
-22 -2 -53 -4 -58 -18 -55 -11 3 -11 0 1 -14 11 -14 11 -16 1 -10 -10 6 -13 2
-12 -15 4 -45 0 -80 -8 -75 -5 3 -9 -1 -9 -9 0 -8 4 -12 9 -9 4 3 8 -2 8 -11
0 -8 -6 -18 -14 -21 -10 -4 -12 -14 -6 -39 4 -19 6 -36 3 -39 -3 -2 -4 -65 -3
-138 1 -73 1 -140 1 -148 0 -8 0 -152 0 -320 0 -168 0 -312 0 -320 0 -8 0
-152 0 -320 0 -168 0 -312 0 -320 0 -8 0 -152 0 -320 0 -168 0 -309 0 -315 -1
-67 -1 -413 0 -420 4 -30 4 -42 -4 -57 -4 -10 -4 -18 0 -18 4 0 7 -44 6 -97
-1 -62 3 -103 10 -112 10 -12 9 -13 -1 -7 -10 6 -12 0 -9 -25 2 -19 0 -42 -5
-51 -5 -10 -5 -18 -1 -18 4 0 7 -24 5 -52 -3 -66 -2 -107 2 -133 2 -11 -1 -28
-6 -37 -5 -10 -5 -18 -1 -18 4 0 7 -24 5 -52 -3 -64 -3 -65 -2 -158 1 -41 7
-81 13 -89 10 -12 9 -13 -1 -7 -10 6 -12 0 -9 -25 2 -19 0 -42 -5 -51 -5 -10
-5 -18 -1 -18 5 0 6 -28 3 -62 -7 -82 -2 -120 13 -111 9 5 9 3 1 -8 -6 -8 -14
-26 -16 -42 -5 -24 -3 -27 15 -21 14 4 17 3 12 -6 -5 -8 3 -11 28 -9 20 2 39
0 43 -4 4 -4 1 -7 -6 -7 -7 0 -10 -3 -7 -6 4 -4 14 -1 24 7 11 9 14 10 9 2 -5
-10 6 -13 43 -13 28 0 53 1 55 3 2 1 13 -7 25 -17 12 -11 21 -16 21 -11 0 4 7
2 15 -5 12 -10 15 -10 15 1 1 9 6 7 16 -6 8 -11 17 -19 19 -17 15 7 65 1 60
-8 -4 -6 -3 -10 2 -9 4 1 26 1 48 0 30 -1 36 -4 25 -11 -12 -8 -9 -10 13 -10
36 0 40 -1 55 -17 8 -7 17 -11 22 -8 5 3 11 1 15 -4 3 -6 13 -7 22 -4 12 5 14
3 8 -8 -8 -12 -6 -12 9 0 15 12 17 12 14 0 -2 -8 3 -13 10 -11 6 1 12 -4 12
-10 0 -9 4 -8 10 2 8 13 10 13 10 -2 0 -11 5 -15 14 -12 7 3 20 -2 29 -10 9
-9 26 -16 39 -16 13 0 32 -7 42 -15 10 -8 24 -11 30 -8 6 4 5 0 -2 -9 -10 -13
-9 -15 12 -13 14 2 27 -3 30 -11 3 -8 18 -14 33 -14 19 0 24 -3 15 -9 -10 -6
-3 -10 22 -15 20 -4 36 -11 36 -16 0 -6 7 -10 16 -10 8 0 12 -4 9 -10 -4 -6 5
-10 19 -10 16 0 26 -6 26 -15 0 -8 6 -12 14 -9 7 3 16 -2 19 -10 4 -9 16 -16
27 -16 12 0 18 -4 15 -10 -3 -5 3 -10 15 -10 12 0 19 -4 16 -9 -3 -5 1 -12 10
-15 8 -3 12 -11 8 -17 -4 -8 -3 -9 5 -5 6 4 9 13 5 19 -3 7 1 4 9 -5 8 -10 20
-18 26 -18 7 0 9 -4 6 -10 -4 -6 7 -10 25 -10 18 0 29 4 25 10 -3 6 1 10 10
10 8 0 18 8 22 18 8 21 39 52 53 52 5 0 9 6 8 13 -2 6 3 11 10 9 6 -1 12 3 12
9 0 6 15 26 34 44 19 18 32 36 29 39 -4 3 3 6 15 6 15 0 20 5 16 15 -5 11 -2
13 12 8 12 -4 15 -3 10 5 -4 8 2 16 16 21 13 6 19 10 14 10 -10 1 53 61 65 61
4 0 6 7 3 15 -5 11 -2 13 12 8 10 -4 15 -2 11 3 -3 6 12 26 33 44 21 18 36 38
33 44 -4 6 2 4 12 -4 11 -9 16 -10 11 -2 -4 7 -2 12 6 12 9 0 9 3 -2 10 -13 9
-13 10 0 10 8 0 24 11 34 25 10 13 22 22 27 19 5 -3 9 0 9 6 0 18 49 62 62 54
7 -5 8 -3 3 5 -7 13 26 51 45 51 5 0 9 3 7 8 -3 10 125 138 136 134 5 -1 6 1
3 6 -6 10 29 42 46 42 6 0 8 3 5 7 -9 8 22 43 39 43 8 0 11 6 8 15 -5 11 -2
13 12 8 10 -4 15 -2 11 4 -7 11 27 43 45 43 6 0 9 3 5 6 -8 9 25 44 43 44 13
0 13 1 0 10 -12 8 -11 10 7 10 13 0 22 5 20 13 -1 6 4 11 11 9 8 -1 11 2 7 8
-3 6 4 14 17 19 13 6 19 10 15 10 -4 1 4 13 20 29 15 15 31 26 35 25 4 -2 8 1
8 7 0 15 33 50 42 44 4 -3 8 1 8 8 0 8 9 20 20 28 11 8 20 20 20 28 0 7 4 11
9 8 5 -3 17 5 27 19 10 13 21 22 26 19 7 -5 12 10 9 29 0 4 4 7 9 7 6 0 30 20
54 45 24 24 46 41 50 38 6 -6 10 13 7 31 -1 5 5 6 14 2 9 -3 14 -2 11 2 -6 10
30 43 38 35 6 -6 10 13 7 30 -1 5 3 6 8 3 5 -3 12 1 15 10 3 8 10 12 16 9 5
-3 10 -1 10 6 0 14 76 89 91 89 5 0 8 4 5 8 -3 5 13 24 34 42 21 18 37 37 34
42 -3 4 2 8 10 8 9 0 16 5 16 10 0 6 7 10 16 10 8 0 13 4 9 9 -3 5 4 13 16 16
15 5 18 10 10 15 -8 4 -2 12 17 21 16 8 30 19 31 24 2 6 7 9 12 8 5 -2 9 2 9
7 0 14 75 90 89 90 6 0 10 6 8 13 -1 6 4 11 11 10 6 -2 12 2 12 7 0 14 46 60
60 60 6 0 9 4 6 8 -6 9 29 42 44 42 6 0 9 6 7 13 -1 6 4 11 11 10 6 -2 12 2
12 8 0 13 30 44 31 32 0 -4 4 2 10 15 5 13 13 20 19 17 5 -3 10 0 10 8 0 7 11
20 25 27 13 7 22 16 20 20 -5 8 32 40 47 40 6 0 9 3 5 6 -8 8 25 44 41 44 7 0
10 5 7 10 -3 6 -1 10 4 10 6 0 11 8 11 18 0 13 2 14 9 4 6 -10 12 -7 24 12 25
38 74 86 81 79 3 -4 6 1 6 10 0 10 7 17 15 17 9 0 12 6 8 15 -3 9 -2 15 3 14
5 -1 18 -1 29 0 17 1 18 3 5 11 -10 6 -11 10 -2 10 6 0 12 8 12 18 0 13 2 14
9 3 7 -11 10 -9 16 8 3 12 11 19 16 16 5 -4 9 1 9 9 0 9 7 16 15 16 9 0 12 6
9 15 -5 11 -2 13 10 9 11 -4 16 -1 16 10 0 15 12 21 33 17 5 -1 6 3 3 7 -7 11
39 63 48 55 3 -4 6 -1 6 6 0 7 5 9 12 5 6 -4 8 -3 4 4 -3 6 -2 13 4 17 6 4 8
10 5 15 -3 4 2 11 11 14 9 4 14 9 10 13 -3 3 2 15 11 26 10 10 17 21 16 23 -9
13 -1 33 11 28 9 -4 13 2 11 20 -2 15 1 24 6 20 5 -3 12 8 15 25 4 17 11 28
16 25 5 -3 9 0 7 7 -3 28 1 40 13 33 6 -4 8 -3 4 4 -3 6 1 17 9 25 11 12 12
17 2 20 -7 3 -5 6 6 6 10 1 17 9 17 21 0 11 5 20 10 20 6 0 10 6 10 13 0 6 9
23 20 37 14 18 16 28 8 38 -6 7 -7 12 -2 10 5 -2 10 2 12 7 2 6 9 17 17 25 7
8 15 24 17 35 1 11 5 22 8 25 11 11 40 72 40 85 0 7 4 15 10 17 5 2 10 17 12
35 1 23 5 29 14 22 8 -6 10 -2 8 16 -1 14 4 31 11 39 11 10 11 16 2 26 -9 10
-9 11 1 6 8 -5 12 0 12 14 0 12 4 19 9 16 5 -4 7 3 4 14 -3 11 -1 20 4 20 6 0
9 11 8 24 -2 14 3 27 10 30 8 3 12 20 11 46 -1 22 3 49 10 58 6 9 12 51 13 91
1 43 6 78 12 82 8 4 7 8 -2 13 -11 5 -11 7 -1 12 6 3 12 10 12 15 0 6 -4 8 -8
5 -5 -3 -9 1 -9 9 0 8 4 12 9 9 4 -3 8 -1 8 5 0 5 -6 12 -12 14 -10 4 -10 6 0
6 6 1 12 6 12 12 0 5 -4 8 -8 5 -5 -3 -9 1 -9 9 0 8 4 12 9 9 13 -8 9 11 -4
25 -11 10 -10 11 2 6 12 -4 15 6 15 59 0 41 -4 62 -11 59 -6 -2 -11 3 -11 11
0 8 4 13 9 10 4 -3 8 0 8 5 0 6 -5 11 -12 11 -6 0 -3 7 8 15 16 13 16 14 2 9
-21 -7 -26 21 -5 29 10 4 10 6 0 6 -9 1 -13 18 -13 52 0 34 -4 48 -11 43 -8
-5 -8 -1 0 14 7 14 8 23 1 27 -5 3 -10 19 -10 36 0 16 -5 29 -12 29 -10 0 -10
2 0 9 11 6 10 10 -3 15 -14 5 -15 9 -5 21 9 10 9 15 1 15 -6 0 -11 5 -11 11 0
5 4 8 9 4 5 -3 13 -1 16 5 4 6 1 9 -7 8 -8 -2 -13 7 -13 25 1 15 -3 27 -7 27
-4 0 -4 7 -1 17 4 9 2 14 -3 11 -8 -6 -14 30 -17 113 -1 28 -5 35 -17 31 -12
-5 -13 -3 -3 10 7 8 9 18 5 22 -4 4 -7 28 -8 52 -1 24 -5 48 -9 52 -5 4 -5 1
0 -7 5 -9 4 -12 -2 -8 -14 9 -15 557 -2 557 5 0 9 7 9 16 0 8 -4 13 -8 10 -5
-3 -9 1 -9 9 0 8 4 12 8 10 4 -3 10 2 13 11 9 22 8 26 -5 18 -8 -4 -8 -1 -1
12 5 11 9 31 8 46 -1 14 1 25 5 22 4 -2 9 3 13 11 3 8 1 17 -4 20 -6 4 -10 12
-10 18 0 7 4 6 10 -3 7 -11 10 1 10 40 0 41 3 51 11 40 8 -12 9 -11 7 6 -2 11
3 28 10 37 9 10 10 17 2 22 -5 3 -10 11 -10 17 0 7 4 7 13 0 9 -8 12 -1 14 31
1 23 7 43 12 45 6 2 11 12 11 23 0 10 5 19 11 19 8 0 7 6 -2 17 -8 9 -9 14 -3
10 7 -4 18 1 25 10 12 14 12 16 -1 8 -8 -4 -4 2 8 15 15 14 20 25 13 29 -7 5
-3 13 10 24 11 10 17 22 14 28 -4 5 -1 8 7 7 7 -2 12 2 11 9 -1 6 4 17 12 23
8 7 15 20 15 29 0 14 2 14 10 1 8 -12 10 -9 10 13 0 18 5 27 16 27 8 0 12 5 9
10 -3 6 1 10 10 10 11 0 15 5 12 15 -4 8 -2 17 3 20 4 3 11 -1 13 -7 3 -8 6
-6 6 5 1 9 9 17 19 17 14 0 15 2 2 10 -13 8 -12 10 3 10 10 0 20 7 23 15 4 8
10 12 15 9 5 -3 9 2 9 10 0 9 7 16 15 16 8 0 15 7 15 16 0 8 4 13 9 10 5 -4
11 -1 13 4 2 6 12 13 23 14 11 2 19 9 18 15 -2 6 6 11 17 11 11 0 23 7 26 15
4 8 15 15 25 15 10 0 19 5 19 10 0 6 9 10 21 10 11 0 17 5 14 10 -3 6 4 10 17
10 13 0 30 6 37 13 6 6 16 13 21 13 6 1 15 2 21 3 5 0 8 5 5 10 -4 5 5 8 19 7
14 -2 30 3 36 10 6 8 27 14 45 14 19 0 34 5 34 10 0 6 5 10 11 10 5 0 7 -6 4
-12 -4 -7 0 -6 7 3 7 9 22 17 33 17 48 -1 66 3 60 12 -3 6 -1 10 4 10 6 0 11
-6 11 -12 0 -10 2 -10 9 0 4 8 11 13 15 13 32 -4 96 1 92 7 -3 5 1 9 9 9 8 0
12 -3 10 -7 -2 -4 2 -7 10 -7 8 0 12 4 9 9 -3 4 25 9 63 9 149 3 148 2 148 24
0 13 -7 21 -20 21 -11 1 -28 2 -38 3 -10 1 -16 5 -13 9 3 5 -1 9 -9 9 -8 0
-12 -3 -10 -7 2 -4 -2 -7 -10 -7 -8 0 -12 4 -9 8 2 4 0 10 -6 14 -5 3 -10 1
-10 -5 0 -7 -6 -8 -17 -2 -10 5 -34 8 -54 8 -25 -1 -35 3 -32 11 4 9 -3 10
-26 3 -17 -5 -29 -5 -27 -1 3 4 -30 8 -72 9 -46 2 -79 8 -84 15 -6 9 -8 9 -8
0 0 -7 -5 -13 -11 -13 -5 0 -7 5 -4 10 6 9 -118 15 -234 10 -32 -1 -41 2 -36
11 6 8 4 10 -6 3 -19 -11 -88 -14 -95 -3 -3 5 -13 9 -22 9 -14 0 -14 -2 -3 -9
9 -6 4 -8 -17 -8 -17 1 -28 5 -26 9 8 13 -81 9 -95 -4 -8 -8 -11 -8 -8 -2 7
12 -27 26 -37 17 -7 -7 -106 -10 -106 -3 0 3 -24 5 -54 5 -30 0 -52 -3 -49 -7
2 -5 1 -8 -4 -9 -4 0 -18 -2 -30 -5 -12 -2 -25 1 -28 6 -3 6 -14 10 -23 10
-13 0 -14 -2 -3 -9 8 -5 1 -8 -23 -7 -24 1 -35 5 -31 14 2 6 3 12 2 11 -1 0
-9 -3 -17 -6z m-3 -19 c-3 -3 -12 -4 -19 -1 -8 3 -5 6 6 6 11 1 17 -2 13 -5z
m-887 -90 c0 -8 -19 -13 -24 -6 -3 5 1 9 9 9 8 0 15 -2 15 -3z m1057 -2896
c-3 -8 -6 -5 -6 6 -1 11 2 17 5 13 3 -3 4 -12 1 -19z"/>
<path d="M15486 16152 c-3 -5 1 -9 9 -9 8 0 12 4 9 9 -3 4 -7 8 -9 8 -2 0 -6
-4 -9 -8z"/>
<path d="M14925 14340 c-3 -5 -1 -10 4 -10 6 0 11 5 11 10 0 6 -2 10 -4 10 -3
0 -8 -4 -11 -10z"/>
<path d="M1362 13283 c5 -19 -14 -83 -25 -83 -7 0 -6 -4 3 -10 10 -6 11 -10 3
-10 -7 0 -12 -3 -12 -7 3 -19 -2 -34 -9 -29 -5 3 -9 -1 -9 -9 0 -8 4 -12 9 -9
4 3 8 0 8 -5 0 -6 -4 -11 -10 -11 -5 0 -10 -19 -10 -42 0 -32 -3 -39 -10 -28
-7 11 -10 2 -10 -32 0 -26 -4 -50 -10 -53 -5 -3 -10 -11 -10 -16 0 -6 6 -7 13
-3 7 5 6 0 -3 -11 -8 -10 -16 -30 -16 -44 -3 -57 -4 -62 -16 -55 -10 6 -10 4
0 -7 16 -17 16 -32 0 -23 -8 5 -7 0 2 -11 9 -11 10 -16 3 -11 -12 7 -17 -25
-16 -111 0 -12 -4 -20 -9 -17 -4 3 -5 11 -2 17 4 7 4 9 0 5 -5 -4 -9 -31 -10
-60 -1 -29 -6 -59 -10 -67 -6 -10 -5 -12 2 -7 7 4 12 2 12 -3 0 -6 -8 -11 -17
-11 -15 0 -15 -1 2 -13 14 -11 15 -16 5 -22 -9 -6 -11 -4 -5 6 5 8 4 11 0 6
-14 -12 -16 -47 -2 -47 8 0 8 -3 1 -8 -10 -6 -12 -21 -14 -95 -1 -15 -5 -25
-9 -23 -4 3 -8 -1 -8 -9 0 -8 4 -12 9 -9 4 3 8 -5 8 -18 0 -18 -2 -20 -10 -8
-7 10 -10 -16 -11 -85 -1 -55 0 -108 1 -119 1 -10 -4 -23 -12 -27 -11 -7 -10
-9 1 -9 11 0 9 -4 -5 -15 -12 -9 -13 -13 -4 -10 11 4 16 -1 16 -14 0 -15 -3
-17 -13 -9 -10 8 -12 7 -7 -6 3 -9 10 -16 16 -16 5 0 3 -6 -4 -13 -20 -20 -17
-835 3 -848 10 -6 10 -9 2 -9 -7 0 -13 -9 -13 -20 0 -11 6 -20 13 -20 9 0 8
-3 -2 -9 -11 -7 -11 -9 0 -14 12 -5 12 -7 0 -15 -8 -6 -9 -11 -2 -13 6 -3 11
-39 12 -91 1 -49 5 -88 10 -88 5 0 9 -5 9 -11 0 -5 -4 -8 -8 -5 -4 2 -8 -4 -8
-14 0 -10 4 -16 8 -14 8 5 13 -58 8 -100 -1 -13 2 -16 12 -10 11 6 11 5 0 -8
-10 -13 -10 -17 -1 -20 7 -2 14 -21 15 -41 1 -25 -2 -34 -10 -30 -8 5 -8 3 -1
-8 6 -8 12 -27 14 -44 1 -16 7 -34 12 -39 5 -6 4 -15 -2 -23 -8 -9 -8 -13 0
-13 6 0 11 -18 11 -43 0 -24 6 -49 13 -56 10 -11 9 -13 -3 -7 -13 7 -13 6 0
-6 9 -8 15 -31 16 -58 0 -25 5 -44 11 -43 5 1 10 -4 10 -12 0 -8 -4 -12 -9 -9
-4 3 -8 0 -8 -5 0 -6 5 -11 11 -11 5 0 9 -8 8 -17 -3 -36 1 -54 12 -47 7 4 7
-1 -1 -16 -8 -15 -8 -20 -1 -16 7 5 11 -6 11 -33 0 -21 4 -41 10 -43 5 -1 11
-21 13 -44 2 -23 8 -47 13 -55 5 -8 10 -25 12 -39 2 -14 7 -26 13 -28 5 -2 9
-8 9 -13 0 -6 -6 -7 -12 -3 -10 6 -10 4 0 -8 7 -9 15 -26 17 -39 3 -12 9 -25
14 -28 5 -4 8 -19 7 -34 -3 -22 0 -27 12 -22 12 4 13 3 2 -10 -8 -10 -9 -15
-1 -15 6 0 11 -13 11 -29 0 -16 6 -34 14 -40 8 -7 13 -21 11 -33 -3 -13 0 -18
9 -15 8 3 13 -2 13 -11 0 -46 4 -63 13 -57 6 4 10 -7 10 -25 0 -22 4 -29 13
-24 7 5 7 2 -2 -10 -12 -14 -12 -17 -1 -14 8 2 15 -3 16 -9 1 -7 3 -16 4 -20
1 -5 2 -11 1 -15 0 -5 4 -8 9 -8 6 0 10 -12 10 -26 0 -14 4 -23 10 -19 6 4 10
-7 10 -25 0 -17 6 -33 14 -36 8 -3 13 -14 11 -25 -2 -10 1 -19 6 -19 6 0 15
-13 20 -30 6 -16 15 -30 21 -30 5 0 7 -4 4 -9 -4 -5 -1 -11 5 -13 7 -2 13 -16
13 -30 1 -15 12 -36 24 -46 12 -11 22 -29 22 -41 0 -11 4 -21 9 -21 5 0 12
-12 15 -26 4 -15 10 -24 13 -20 7 7 33 -40 33 -60 0 -8 7 -14 16 -14 11 0 15
-6 11 -20 -3 -13 0 -20 9 -20 13 0 19 -20 15 -44 -1 -5 6 -3 15 5 13 10 16 10
10 1 -4 -7 -2 -19 4 -27 6 -8 9 -19 5 -25 -4 -6 -3 -10 2 -9 23 4 33 -3 33
-26 0 -14 5 -24 12 -22 7 1 13 -5 13 -13 0 -8 7 -14 14 -12 7 1 10 -2 7 -7 -4
-5 2 -14 11 -20 11 -6 13 -11 5 -11 -10 0 -10 -3 0 -14 7 -8 16 -12 19 -10 4
2 10 -8 13 -21 4 -14 11 -23 16 -20 6 3 10 -3 10 -14 0 -12 7 -21 15 -21 8 0
14 -6 12 -12 -1 -7 4 -12 12 -10 8 2 11 -3 8 -13 -4 -9 -1 -15 8 -15 9 0 15
-9 15 -22 0 -19 2 -20 10 -8 8 13 10 13 10 -1 0 -9 7 -20 16 -23 8 -3 13 -10
10 -15 -3 -5 1 -11 9 -15 8 -3 15 -12 15 -21 0 -8 6 -14 13 -12 6 1 11 -4 10
-10 -2 -8 7 -13 20 -13 18 0 19 -2 7 -10 -13 -8 -12 -10 3 -10 9 0 17 -7 17
-15 0 -8 4 -14 9 -12 11 3 61 -50 61 -65 0 -5 7 -7 16 -4 12 4 15 2 10 -9 -3
-8 0 -15 7 -15 7 0 25 -16 42 -35 16 -19 35 -35 41 -35 7 0 19 -11 28 -25 9
-14 23 -25 31 -25 8 0 15 -4 15 -10 0 -5 7 -10 15 -10 9 0 12 -6 9 -15 -5 -11
-2 -13 10 -9 11 4 16 1 16 -11 0 -9 4 -14 10 -10 5 3 18 -3 29 -14 11 -11 22
-17 25 -14 3 4 6 -2 6 -13 0 -16 2 -17 10 -4 8 12 10 10 10 -9 0 -21 2 -22 17
-10 11 10 14 10 9 2 -5 -9 0 -13 14 -13 12 0 19 -4 15 -9 -3 -5 4 -12 15 -16
11 -4 18 -11 15 -16 -3 -5 1 -6 9 -3 9 4 18 -1 22 -10 3 -9 10 -14 14 -11 5 3
16 -5 26 -17 13 -18 15 -19 10 -4 -5 16 -4 17 9 6 8 -7 15 -20 16 -29 0 -12 2
-11 9 4 7 17 9 17 9 3 1 -13 9 -18 29 -18 21 0 24 -2 12 -10 -12 -8 -9 -10 12
-10 14 0 28 -5 30 -10 2 -6 13 -12 26 -13 12 -1 21 -6 18 -13 -2 -6 1 -11 7
-11 31 1 48 -4 43 -11 -3 -5 0 -9 7 -10 7 -1 23 -3 37 -5 14 -1 24 -8 23 -14
-1 -6 8 -10 22 -8 17 1 25 -3 25 -14 0 -14 2 -14 10 -1 6 10 10 11 10 3 0 -7
11 -13 25 -13 14 0 25 -4 25 -10 0 -5 11 -10 25 -10 14 0 25 -5 25 -11 0 -8 4
-8 14 0 10 9 16 8 26 -4 7 -8 16 -12 21 -9 5 3 9 0 9 -7 0 -7 3 -9 7 -6 3 4
13 1 21 -6 13 -10 14 -9 7 3 -6 12 -5 13 6 3 7 -7 25 -13 40 -13 15 0 31 -5
34 -10 4 -6 11 -8 16 -5 5 4 9 2 9 -4 0 -5 11 -8 25 -6 14 1 25 -2 25 -7 0 -5
10 -6 21 -3 13 4 19 3 15 -3 -3 -6 681 -9 1960 -9 1754 -1 1965 1 1959 15 -4
11 -2 12 8 4 11 -9 13 -2 13 39 -1 29 4 55 12 61 10 9 10 14 0 26 -10 13 -10
14 0 8 9 -5 12 4 13 36 1 24 1 47 0 52 -1 5 4 6 11 3 10 -3 13 7 12 40 -1 30
3 46 12 50 8 3 14 9 14 15 0 5 -5 6 -10 3 -6 -4 -1 10 10 30 11 20 15 33 8 29
-10 -6 -10 -5 0 8 7 9 14 29 15 46 1 16 7 28 13 25 6 -2 10 6 9 19 -2 13 4 33
11 45 8 12 14 29 14 38 0 8 5 15 11 15 5 0 7 5 4 10 -3 6 -2 10 3 10 5 0 8 10
7 23 -1 12 6 32 17 44 12 12 17 27 13 34 -5 8 -4 10 3 5 8 -4 12 0 12 11 0 10
7 27 15 37 8 11 13 29 10 40 -3 12 -2 15 1 8 9 -19 24 -4 24 24 0 14 4 22 10
19 6 -4 10 6 10 22 0 22 2 25 10 13 8 -12 10 -9 10 13 0 15 4 27 10 27 5 0 12
11 16 25 3 14 10 22 15 19 8 -5 14 17 10 39 0 4 6 7 15 7 8 0 13 4 9 9 -3 5 2
16 10 24 8 9 15 21 15 27 0 6 5 8 10 5 6 -3 10 3 10 15 0 12 4 19 8 16 4 -2
14 4 21 16 7 11 8 17 2 13 -6 -3 -11 -1 -11 4 0 6 7 11 15 11 8 0 15 7 15 16
0 8 5 12 10 9 6 -3 10 3 10 15 0 12 -9 24 -22 29 -13 5 -22 11 -21 15 6 15
-11 36 -28 36 -11 0 -19 7 -19 16 0 8 -6 22 -14 30 -17 17 -30 19 -20 2 5 -7
3 -8 -5 -4 -7 5 -10 10 -7 13 3 3 -8 17 -24 31 -17 15 -30 32 -30 39 0 7 -10
13 -22 13 -17 0 -19 3 -10 9 10 6 8 10 -8 14 -12 3 -19 10 -15 16 3 7 -2 11
-14 11 -12 0 -20 3 -20 8 3 20 -2 32 -12 27 -6 -4 -13 3 -16 15 -4 16 -8 18
-14 8 -6 -9 -9 -7 -9 10 0 15 -6 22 -20 22 -11 0 -20 6 -20 14 0 8 -7 16 -15
20 -8 3 -15 13 -15 21 0 9 -4 14 -9 10 -6 -3 -15 4 -21 15 -6 11 -18 20 -28
20 -15 0 -15 2 -2 10 12 8 10 10 -10 10 -20 0 -22 2 -10 10 13 9 13 10 0 10
-18 0 -70 56 -61 65 3 4 -1 5 -9 3 -9 -2 -14 4 -14 14 1 10 -2 16 -6 13 -16
-10 -40 8 -40 29 0 15 -3 17 -9 8 -6 -10 -10 -7 -15 12 -3 14 -12 25 -19 23
-6 -1 -11 4 -9 11 1 6 -4 11 -10 10 -7 -2 -12 3 -10 10 1 7 -9 17 -23 22 -14
5 -25 16 -25 25 0 8 -9 15 -20 15 -13 0 -20 7 -20 19 0 11 -5 23 -12 27 -7 5
-9 2 -3 -7 4 -8 -4 0 -19 16 -14 17 -25 34 -26 38 0 5 -4 5 -10 2 -5 -3 -10 1
-10 9 0 9 -9 16 -20 16 -13 0 -20 7 -20 20 0 11 -5 20 -11 20 -5 0 -7 -6 -3
-12 4 -8 3 -10 -2 -5 -5 5 -9 14 -9 20 -1 7 -7 11 -15 9 -8 -2 -12 0 -8 3 4 4
-6 19 -22 33 -17 15 -30 32 -30 39 0 7 -9 13 -20 13 -11 0 -20 5 -20 11 0 5 5
7 12 3 7 -5 8 -3 4 5 -5 7 -10 10 -12 8 -9 -8 -84 66 -84 82 0 14 -2 14 -10 1
-8 -12 -10 -11 -10 8 0 15 -6 22 -20 22 -11 0 -20 4 -20 10 0 15 -76 90 -91
90 -10 0 -11 3 -3 8 9 5 8 10 -1 19 -11 10 -15 10 -18 0 -3 -7 -6 -2 -6 11 -1
13 -5 21 -10 18 -5 -3 -15 2 -22 11 -12 14 -12 16 0 8 10 -5 12 -4 7 4 -4 6
-12 9 -17 6 -5 -4 -17 7 -27 24 -9 17 -21 31 -25 31 -10 0 -38 27 -37 35 0 3
-2 4 -5 3 -2 -2 -12 7 -20 20 -9 12 -21 19 -27 16 -7 -5 -9 -1 -5 9 4 10 -1
18 -13 22 -10 3 -21 12 -24 20 -3 8 -12 15 -21 15 -8 0 -15 9 -15 19 0 11 -5
23 -12 27 -7 5 -9 2 -4 -7 4 -8 -5 0 -20 16 -15 17 -31 29 -35 28 -4 -2 -11 6
-14 17 -4 11 -14 20 -23 20 -15 0 -15 2 -2 10 13 9 13 10 0 10 -9 0 -27 13
-42 30 -14 16 -29 26 -33 22 -3 -4 -5 -2 -3 4 2 7 -9 23 -24 37 -16 14 -28 31
-28 37 0 5 -5 10 -12 10 -6 0 -29 18 -49 40 -21 22 -43 40 -51 40 -9 0 -10 2
-2 8 9 5 8 10 -1 19 -11 10 -15 10 -18 0 -3 -7 -6 -4 -6 6 -1 12 -5 16 -13 11
-8 -5 -7 0 2 11 8 10 10 16 4 12 -6 -3 -25 7 -42 22 -17 16 -34 26 -37 23 -3
-4 -3 2 1 12 5 14 4 17 -4 12 -7 -4 -12 -1 -12 8 0 9 -9 16 -20 16 -11 0 -20
5 -20 10 0 6 -1 13 -2 18 -2 11 -32 31 -40 26 -5 -3 -8 2 -8 11 0 9 -4 13 -10
10 -6 -3 -7 1 -4 9 4 10 1 16 -9 16 -9 0 -19 10 -22 21 -6 17 -9 19 -16 8 -6
-10 -9 -7 -9 11 0 18 -3 21 -9 12 -6 -10 -10 -8 -14 8 -3 12 -10 19 -16 15 -7
-3 -11 2 -11 14 0 12 -6 20 -12 18 -7 -1 -12 4 -10 11 1 8 -2 11 -7 8 -5 -3
-15 2 -22 11 -12 14 -12 16 0 8 10 -5 12 -4 7 3 -4 7 -16 12 -27 12 -10 0 -19
7 -19 15 0 9 -7 18 -15 21 -8 4 -12 11 -8 17 4 7 0 8 -13 3 -10 -4 -16 -4 -12
-1 7 8 -33 51 -44 48 -5 -2 -8 6 -8 17 0 14 -7 20 -22 20 -19 0 -20 2 -8 10
13 8 13 10 -2 10 -9 0 -19 9 -23 19 -4 13 -12 18 -22 14 -10 -4 -14 -2 -10 3
3 6 -3 17 -14 24 -10 8 -19 20 -19 27 0 7 -9 13 -20 13 -13 0 -20 7 -20 20 0
11 -5 20 -11 20 -14 0 -109 95 -109 109 0 6 -7 11 -15 11 -9 0 -18 7 -21 15
-4 8 -10 12 -15 9 -5 -3 -12 2 -15 10 -3 9 -10 16 -15 16 -15 0 -48 38 -41 46
4 4 2 4 -5 1 -6 -4 -18 0 -26 8 -9 8 -21 15 -27 15 -6 0 -8 5 -5 10 3 6 1 10
-4 10 -6 0 -20 9 -31 20 -12 12 -26 18 -32 14 -7 -4 -8 -3 -4 4 4 7 1 12 -8
12 -9 0 -16 7 -16 16 0 8 -5 12 -10 9 -6 -3 -13 1 -16 9 -3 9 -15 16 -26 16
-10 0 -16 5 -13 10 3 6 -3 10 -15 10 -12 0 -18 5 -15 10 4 6 -8 13 -25 17 -22
4 -28 8 -18 14 9 6 6 9 -10 9 -15 0 -21 4 -16 12 5 8 2 9 -9 5 -9 -3 -24 1
-33 11 -9 9 -24 17 -33 19 -8 1 -17 7 -19 12 -2 6 -15 11 -28 11 -15 0 -24 6
-24 16 0 8 -4 13 -9 10 -5 -4 -17 -3 -26 0 -13 6 -14 9 -3 16 9 7 7 8 -9 5
-13 -3 -23 -1 -23 3 0 5 -9 7 -20 5 -11 -2 -19 1 -17 7 1 7 -9 12 -23 12 -14
0 -28 5 -33 12 -4 7 -19 11 -33 9 -15 -1 -28 3 -31 11 -3 8 -12 14 -20 14 -8
0 -11 -5 -8 -10 4 -6 -10 -1 -30 10 -35 20 -63 28 -35 10 12 -7 10 -9 -7 -7
-12 0 -19 5 -17 9 4 7 -71 14 -98 9 -5 0 -8 3 -8 9 0 5 -7 10 -16 10 -8 0 -13
-4 -10 -9 4 -5 -2 -8 -11 -6 -10 2 -22 4 -26 4 -5 1 -6 5 -2 10 3 6 -9 7 -27
5 -18 -3 -37 -5 -43 -4 -68 7 -213 4 -224 -4 -11 -8 -13 -8 -8 0 8 13 -68 10
-86 -3 -7 -5 -52 -10 -102 -12 -49 -1 -94 -6 -99 -11 -6 -6 -15 -10 -20 -10
-6 0 -4 5 4 10 12 7 10 9 -7 7 -12 0 -19 -5 -17 -9 3 -4 -18 -8 -46 -8 -28 0
-49 -4 -46 -8 3 -5 -1 -9 -9 -9 -8 0 -12 4 -9 9 3 4 0 8 -5 8 -6 0 -11 -4 -11
-10 0 -5 -5 -10 -11 -10 -5 0 -7 6 -4 13 4 6 0 4 -7 -5 -13 -15 -15 -15 -26 0
-9 13 -10 13 -6 2 3 -12 -4 -16 -28 -16 -64 -2 -69 -4 -62 -16 6 -10 4 -10 -8
0 -11 9 -18 10 -23 2 -3 -5 -35 -10 -71 -10 -36 0 -63 -4 -60 -8 3 -5 -1 -9
-9 -9 -8 0 -12 3 -10 7 2 4 -2 7 -10 7 -8 0 -12 -4 -9 -9 3 -4 1 -8 -5 -8 -5
0 -12 6 -14 13 -4 8 -6 7 -6 -3 -1 -12 -15 -15 -66 -14 -35 0 -62 -3 -59 -8 8
-13 -10 -10 -25 5 -11 10 -13 10 -7 0 4 -7 4 -13 -1 -14 -13 -1 -125 -7 -166
-8 -21 0 -36 -5 -33 -9 2 -4 -6 -8 -19 -8 -13 0 -21 4 -19 8 3 4 1 8 -5 8 -5
0 -12 -6 -14 -12 -4 -10 -6 -10 -6 0 -1 6 -6 12 -12 12 -5 0 -8 -4 -5 -8 3 -5
-1 -9 -9 -9 -8 0 -12 4 -9 9 5 7 -24 10 -138 11 -37 1 -50 11 -25 20 6 2 -6 4
-28 4 -75 0 -96 3 -90 13 6 10 -19 14 -63 10 -12 -1 -25 6 -28 15 -4 9 -13 14
-20 11 -7 -3 -20 1 -28 9 -11 11 -16 12 -19 2 -4 -9 -6 -9 -6 1 -1 6 -8 12
-16 12 -8 0 -15 5 -15 10 0 6 -13 10 -29 10 -17 0 -33 5 -37 12 -5 7 -3 8 6 3
8 -5 11 -4 6 3 -4 6 -13 9 -20 6 -7 -3 -16 2 -19 10 -4 9 -16 16 -27 16 -11 0
-20 4 -20 9 0 5 -11 12 -25 15 -15 4 -23 11 -19 17 4 7 -1 9 -15 4 -16 -5 -20
-3 -15 9 4 12 0 16 -16 16 -11 0 -18 5 -15 10 3 6 -3 10 -14 10 -12 0 -21 7
-21 16 0 8 -3 13 -7 11 -5 -2 -16 4 -25 15 -10 10 -15 18 -10 18 4 0 -8 9 -26
20 -18 11 -30 25 -27 30 3 6 1 10 -5 10 -12 0 -40 24 -40 35 0 4 -11 16 -25
27 -14 11 -25 28 -25 39 0 10 -7 19 -15 19 -9 0 -12 6 -9 15 4 8 -1 17 -10 21
-9 3 -16 15 -16 26 0 10 -4 16 -10 13 -6 -4 -10 5 -10 20 0 15 -4 24 -10 20
-5 -3 -10 3 -10 14 0 10 -4 21 -10 23 -5 2 -11 15 -12 31 -1 15 -8 27 -16 27
-12 0 -12 3 -1 17 10 11 10 14 2 9 -10 -5 -13 2 -13 27 0 19 -7 40 -16 48 -8
7 -13 21 -10 32 3 12 0 17 -8 14 -7 -3 -13 1 -13 9 0 7 4 11 9 8 4 -3 8 -1 8
5 0 5 -4 13 -10 16 -5 3 -10 22 -10 41 0 26 -3 33 -12 28 -8 -5 -7 0 2 11 9
11 10 16 3 11 -10 -5 -13 5 -13 38 0 30 -4 46 -12 46 -9 0 -8 4 2 11 11 8 12
12 2 16 -6 2 -9 10 -5 16 10 16 12 57 2 52 -15 -10 -14 30 1 43 12 10 12 12 1
10 -11 -2 -15 10 -16 52 -3 86 -2 85 -22 69 -10 -8 -14 -9 -10 -2 4 6 3 15 -3
18 -6 4 -9 3 -8 -2z m55 -218 c0 -8 -4 -12 -9 -9 -5 3 -6 10 -3 15 9 13 12 11
12 -6z m70 -357 c-3 -8 -6 -5 -6 6 -1 11 2 17 5 13 3 -3 4 -12 1 -19z m5674
-3095 c13 -16 12 -17 -3 -4 -10 7 -18 15 -18 17 0 8 8 3 21 -13z"/>
<path d="M1650 12400 c0 -5 5 -10 11 -10 5 0 7 5 4 10 -3 6 -8 10 -11 10 -2 0
-4 -4 -4 -10z"/>
<path d="M3747 12069 c7 -7 15 -10 18 -7 3 3 -2 9 -12 12 -14 6 -15 5 -6 -5z"/>
<path d="M15154 11554 c5 -11 -27 -44 -44 -44 -6 0 -10 -5 -10 -11 0 -5 5 -7
12 -3 7 5 8 3 4 -5 -5 -7 -15 -10 -23 -7 -11 4 -13 2 -9 -9 3 -9 0 -15 -9 -15
-8 0 -15 -4 -15 -10 0 -5 -8 -10 -17 -10 -14 0 -15 -2 -4 -9 11 -7 9 -10 -8
-16 -11 -3 -21 -13 -21 -21 0 -8 -3 -13 -7 -12 -11 3 -63 -47 -63 -60 0 -7 -7
-9 -17 -5 -9 4 -14 2 -10 -4 7 -11 -26 -43 -46 -44 -6 0 -3 -4 8 -9 19 -8 19
-9 -3 -9 -15 -1 -26 -9 -29 -22 -4 -16 -8 -17 -14 -7 -6 9 -9 6 -9 -12 0 -20
-2 -22 -10 -10 -8 12 -10 12 -10 1 0 -8 -8 -20 -17 -28 -10 -8 -12 -11 -4 -7
9 5 12 3 7 -4 -4 -7 -16 -12 -27 -12 -11 0 -18 -4 -14 -10 3 -5 -6 -17 -20
-26 -13 -9 -22 -20 -20 -25 6 -9 -35 -35 -50 -30 -5 1 -7 0 -3 -4 3 -4 -15
-28 -41 -53 -26 -26 -50 -55 -54 -64 -3 -10 -17 -18 -29 -18 -19 0 -20 -2 -8
-10 13 -8 13 -10 -2 -10 -20 0 -41 -33 -30 -46 4 -5 -2 -2 -12 6 -11 8 -17 10
-14 5 4 -6 3 -17 -3 -25 -6 -10 -9 -11 -9 -2 0 8 -6 6 -18 -5 -16 -16 -16 -19
-2 -25 11 -5 9 -7 -8 -7 -12 -1 -25 -8 -28 -16 -4 -8 -10 -12 -15 -9 -5 3 -8
1 -7 -4 2 -5 -18 -28 -44 -52 -26 -23 -45 -46 -42 -51 3 -5 2 -9 -3 -8 -17 3
-36 -1 -30 -7 3 -3 -10 -21 -29 -40 -20 -18 -33 -38 -29 -44 3 -6 0 -7 -9 -4
-11 4 -19 -2 -26 -20 -5 -14 -12 -26 -14 -26 -3 0 -2 8 1 17 5 14 3 13 -13 -3
-13 -12 -16 -22 -10 -26 11 -7 -7 -13 -28 -9 -5 1 -3 -6 5 -15 8 -10 9 -15 2
-11 -6 4 -14 3 -18 -3 -4 -6 -11 -8 -16 -4 -5 3 -9 2 -8 -3 4 -20 -2 -37 -9
-27 -4 6 -14 3 -26 -10 -18 -18 -18 -19 -1 -13 15 6 16 5 5 -7 -6 -9 -17 -14
-23 -13 -7 1 -11 -6 -11 -15 1 -10 -2 -15 -7 -12 -5 3 -25 -10 -43 -30 -19
-19 -38 -31 -42 -28 -4 4 -4 2 0 -5 3 -6 2 -14 -4 -18 -6 -4 -7 -12 -3 -18 4
-7 -2 -5 -13 3 -10 8 -16 11 -13 7 7 -9 -66 -87 -81 -87 -5 0 -10 -5 -10 -11
0 -6 -23 -34 -50 -60 -32 -31 -48 -54 -44 -62 5 -7 0 -5 -11 3 -11 9 -16 10
-11 3 4 -8 1 -13 -8 -13 -9 0 -16 -8 -16 -19 0 -10 -7 -24 -15 -31 -8 -7 -15
-10 -15 -6 0 3 -9 -2 -19 -11 -11 -9 -18 -20 -15 -25 3 -4 -2 -8 -11 -8 -9 0
-13 -4 -10 -10 3 -5 -3 -10 -15 -10 -12 0 -18 -4 -15 -10 3 -5 -1 -10 -9 -10
-19 0 -21 -16 -3 -23 11 -5 -17 -11 -35 -8 -4 0 -4 -7 -1 -16 4 -11 3 -14 -5
-9 -7 4 -15 1 -18 -8 -3 -9 -11 -13 -18 -9 -6 4 -5 -1 3 -11 8 -9 10 -16 5
-15 -20 3 -35 -1 -30 -10 3 -5 -4 -11 -15 -14 -14 -4 -18 -10 -13 -18 5 -9 2
-10 -10 -6 -10 4 -15 3 -11 -3 3 -6 -1 -13 -9 -16 -9 -3 -16 -12 -16 -20 0 -8
-6 -11 -17 -7 -9 4 -14 2 -10 -4 3 -5 -3 -17 -14 -26 -11 -10 -17 -23 -13 -30
5 -6 -1 -5 -11 3 -11 9 -16 10 -11 3 4 -8 1 -13 -8 -13 -9 0 -16 -9 -16 -20 0
-12 -9 -24 -22 -29 -13 -5 -31 -21 -42 -35 -10 -14 -23 -23 -28 -20 -4 3 -8 2
-7 -3 1 -4 1 -15 0 -23 -1 -13 -2 -13 -11 0 -5 8 -10 10 -10 4 0 -15 -102
-120 -112 -116 -4 1 -8 -5 -8 -13 0 -8 -4 -15 -10 -15 -5 0 -10 -7 -10 -15 0
-8 -6 -12 -14 -9 -11 4 -13 -1 -10 -18 2 -13 1 -17 -2 -10 -5 10 -9 10 -20 1
-8 -6 -11 -16 -7 -23 3 -6 3 -8 -1 -4 -10 8 -62 -42 -58 -55 2 -5 -5 -7 -14
-3 -11 4 -15 2 -11 -7 3 -8 1 -20 -4 -28 -7 -11 -9 -10 -9 5 0 20 0 20 -14 1
-8 -11 -12 -24 -9 -29 4 -5 2 -6 -4 -3 -5 3 -16 -3 -23 -14 -8 -10 -21 -19
-30 -19 -13 0 -13 -1 0 -10 13 -8 12 -10 -3 -10 -10 0 -20 -7 -23 -15 -4 -8
-14 -15 -23 -16 -12 0 -12 -2 4 -9 21 -9 6 -15 -25 -10 -8 1 -12 -1 -8 -5 8
-8 -98 -115 -115 -115 -8 0 -7 -4 3 -10 13 -9 13 -10 0 -10 -20 0 -50 -35 -51
-58 0 -10 -3 -12 -6 -4 -2 6 -9 12 -14 12 -6 0 -7 -4 -4 -10 3 -5 -1 -10 -10
-10 -9 0 -13 -5 -10 -10 3 -6 -1 -13 -9 -16 -9 -3 -13 -10 -10 -15 3 -5 -2 -9
-10 -9 -17 0 -31 -18 -21 -28 3 -3 11 0 16 8 8 12 9 10 4 -6 -3 -12 0 -28 7
-35 18 -19 63 -90 71 -111 3 -10 11 -18 17 -18 6 0 9 -4 6 -9 -3 -5 1 -12 10
-15 8 -3 13 -10 10 -15 -3 -5 1 -11 9 -15 8 -3 15 -12 15 -21 0 -9 7 -27 16
-40 9 -14 12 -30 8 -37 -6 -9 -3 -9 10 1 9 8 16 10 15 5 -4 -23 2 -45 11 -39
9 5 16 -32 11 -58 -1 -5 3 -6 8 -3 5 3 15 -2 22 -11 10 -12 10 -14 2 -9 -7 4
-13 2 -13 -3 0 -6 6 -11 14 -11 9 0 13 -9 12 -25 -2 -15 1 -22 7 -18 6 4 8 0
4 -11 -4 -10 -3 -15 3 -11 6 3 10 -3 10 -14 0 -11 7 -26 15 -34 8 -8 12 -24
10 -36 -2 -11 1 -24 7 -27 7 -4 8 -2 4 4 -4 7 -2 12 3 12 6 0 11 -16 11 -36 0
-21 4 -33 10 -29 9 5 16 -41 11 -69 -1 -5 4 -4 12 2 12 10 14 7 11 -18 -2 -17
0 -29 5 -25 5 3 7 -5 3 -17 -4 -16 -2 -19 8 -13 10 6 12 4 7 -9 -4 -10 -1 -27
5 -39 13 -23 18 -45 19 -89 0 -15 5 -30 10 -34 5 -3 7 -10 4 -15 -4 -5 -2 -9
3 -9 6 0 9 -16 8 -36 -1 -22 4 -38 11 -41 8 -3 13 -24 13 -55 0 -37 3 -47 13
-42 8 6 8 3 -1 -9 -8 -9 -11 -20 -8 -25 3 -6 781 -9 1956 -9 1912 0 1950 0
1950 19 0 10 -7 29 -16 42 -11 18 -12 26 -3 32 7 4 9 3 6 -2 -3 -6 -2 -16 3
-23 5 -9 7 -2 6 18 0 17 -4 31 -8 31 -5 0 -8 5 -8 11 0 5 5 7 12 3 7 -5 8 -3
3 6 -10 15 -16 71 -18 157 -1 33 -5 59 -9 56 -9 -5 -9 -9 -12 91 -2 53 -8 81
-17 87 -12 7 -12 9 1 9 13 0 13 1 0 10 -10 6 -11 10 -2 10 6 0 12 5 12 11 0 5
-4 8 -8 5 -5 -3 -10 14 -11 37 -2 23 -4 50 -4 59 -1 9 -5 14 -9 12 -4 -3 -8
18 -8 45 0 34 -4 51 -12 51 -9 0 -8 4 2 10 13 9 13 10 0 10 -12 0 -12 2 -2 9
11 7 11 9 0 14 -10 3 -14 22 -14 61 1 53 -6 71 -17 44 -3 -7 -4 -3 -4 9 1 12
6 19 12 15 5 -3 4 1 -3 10 -7 9 -13 32 -14 51 -1 22 -5 34 -11 30 -6 -4 -8 0
-4 10 3 10 3 17 -1 17 -4 0 -7 12 -8 28 -2 54 -8 80 -18 75 -5 -4 -7 1 -3 9 3
9 -1 28 -9 43 -8 15 -14 44 -14 65 0 21 -7 50 -14 66 -8 15 -13 31 -11 35 3 4
-2 9 -10 13 -12 4 -13 11 -5 31 7 19 7 24 -1 19 -7 -4 -10 -1 -7 7 3 8 -2 20
-11 27 -10 8 -10 11 -2 6 10 -5 12 -3 5 7 -9 14 -13 29 -16 62 -1 9 -9 17 -18
17 -13 0 -13 1 0 10 8 5 10 10 3 10 -6 0 -10 11 -8 25 1 14 -2 28 -8 32 -6 4
-7 1 -2 -7 5 -8 4 -11 -2 -7 -5 4 -10 21 -11 39 0 18 -6 34 -11 36 -6 2 -11
17 -11 33 0 22 -4 28 -12 23 -8 -5 -7 0 2 11 9 11 10 16 3 11 -12 -7 -14 -3
-17 37 -1 6 -7 18 -13 25 -7 7 -13 25 -13 38 0 18 -4 23 -12 18 -8 -5 -7 0 2
11 8 10 10 16 3 12 -6 -4 -14 -3 -18 3 -3 5 0 10 7 10 10 0 11 2 0 8 -7 5 -11
15 -9 23 2 8 2 11 0 7 -3 -5 -9 -8 -14 -8 -5 0 -8 3 -8 8 4 26 -3 62 -11 57
-6 -4 -10 7 -10 27 -1 36 -22 72 -36 60 -4 -4 -2 2 6 12 13 18 13 19 -1 14
-11 -4 -15 1 -15 21 1 14 -4 25 -11 24 -6 -1 -10 5 -8 15 1 9 -4 24 -12 33 -8
9 -15 26 -16 38 -1 11 -8 21 -17 22 -10 0 -11 2 -2 6 6 2 12 10 12 16 0 5 -3
7 -7 4 -9 -9 -32 40 -35 73 -2 22 -5 26 -14 19 -9 -8 -12 -4 -10 15 2 14 -3
27 -11 30 -8 3 -12 10 -9 15 3 5 -1 11 -9 15 -8 3 -15 17 -15 31 0 14 -6 28
-13 31 -7 2 -14 14 -14 27 -1 12 -7 23 -13 25 -5 2 -10 10 -10 17 0 7 -4 15
-10 17 -5 2 -11 15 -12 30 -1 15 -6 24 -10 22 -7 -5 -12 10 -9 29 0 4 -6 7
-14 7 -9 0 -15 9 -15 25 0 14 -3 25 -7 25 -5 0 -16 14 -25 31 -10 16 -13 27
-7 23 6 -3 5 3 -3 15 -7 12 -16 21 -20 21 -5 0 -8 9 -8 21 0 14 -5 19 -14 16
-10 -4 -12 0 -9 14 4 13 0 19 -11 19 -10 0 -15 4 -11 9 3 5 1 12 -5 16 -6 4
-8 11 -5 16 4 5 1 9 -6 9 -7 0 -9 3 -6 6 4 4 -3 15 -15 25 -11 11 -17 19 -12
19 5 0 0 7 -10 15 -14 10 -15 15 -6 15 9 0 6 6 -8 16 -12 8 -22 24 -22 34 0
10 -8 24 -17 29 -10 6 -15 11 -11 11 4 0 -4 12 -17 26 -14 15 -25 35 -25 45 0
11 -7 19 -16 19 -12 0 -15 6 -11 21 5 17 3 18 -9 8 -8 -7 -14 -8 -13 -3 4 23
-2 45 -11 39 -5 -3 -10 -1 -10 6 0 6 -8 18 -17 26 -10 8 -12 12 -5 8 6 -3 12
-1 12 4 0 6 -5 11 -11 11 -5 0 -7 5 -3 12 4 7 3 8 -4 4 -13 -8 -35 28 -24 39
4 5 1 5 -6 1 -9 -5 -15 -1 -19 13 -3 11 -10 18 -15 15 -5 -3 -8 2 -6 12 2 11
-2 18 -9 16 -7 -1 -13 3 -13 8 0 11 -2 14 -50 71 -16 20 -30 44 -30 53 0 10
-4 14 -10 11 -5 -3 -10 1 -10 10 0 9 -4 13 -10 10 -5 -3 -10 -1 -10 6 0 6 -10
20 -22 30 -11 11 -17 19 -12 19 5 1 -2 8 -16 16 -18 11 -20 14 -5 10 19 -6 19
-5 3 8 -10 7 -18 18 -18 25 0 6 -6 10 -12 9 -7 -2 -12 3 -10 10 1 6 -5 12 -13
12 -9 0 -15 9 -15 23 0 18 -2 19 -10 7 -7 -11 -10 -12 -10 -2 0 7 -7 20 -15
29 -8 8 -12 19 -9 25 4 6 2 8 -3 5 -6 -4 -14 0 -17 9 -3 8 -11 12 -17 8 -8 -4
-9 -3 -5 4 4 7 2 12 -4 12 -6 0 -8 5 -5 10 3 6 -1 10 -10 10 -9 0 -13 5 -10
10 3 6 1 10 -6 10 -6 0 -18 8 -26 18 -8 9 -12 12 -9 6z m-2044 -2068 c0 -2 -8
-10 -17 -17 -16 -13 -17 -12 -4 4 13 16 21 21 21 13z"/>
<path d="M6890 9896 c0 -2 8 -10 18 -17 15 -13 16 -12 3 4 -13 16 -21 21 -21
13z"/>
<path d="M7665 8250 c-3 -5 -1 -10 4 -10 6 0 11 5 11 10 0 6 -2 10 -4 10 -3 0
-8 -4 -11 -10z"/>
<path d="M3270 7650 c0 -5 5 -10 11 -10 5 0 7 5 4 10 -3 6 -8 10 -11 10 -2 0
-4 -4 -4 -10z"/>
<path d="M3410 7599 c0 -5 5 -7 10 -4 6 3 10 8 10 11 0 2 -4 4 -10 4 -5 0 -10
-5 -10 -11z"/>
<path d="M13135 6761 c-3 -6 -51 -10 -107 -10 -64 0 -105 -5 -112 -12 -8 -9
-7 -10 4 -4 12 6 13 5 3 -6 -7 -7 -13 -32 -13 -56 0 -28 -4 -43 -12 -43 -10 0
-9 -3 1 -9 8 -5 9 -10 3 -12 -6 -2 -13 -20 -15 -39 -2 -20 -7 -41 -11 -48 -7
-11 -17 -73 -19 -109 0 -7 -4 -10 -9 -7 -8 5 -13 -25 -9 -55 2 -8 -2 -10 -11
-5 -9 5 -8 2 2 -11 9 -11 10 -16 3 -11 -8 4 -14 2 -15 -6 0 -7 -2 -17 -3 -23
-2 -5 -3 -16 -4 -23 0 -7 -5 -11 -9 -8 -4 2 -9 -10 -10 -27 -2 -17 -8 -34 -13
-38 -8 -4 -7 -8 2 -12 10 -4 9 -6 -3 -6 -12 -1 -15 -6 -11 -18 4 -10 2 -14 -4
-10 -5 3 -10 1 -11 -6 -3 -50 -34 -122 -46 -109 -4 4 -7 2 -5 -3 4 -17 -13
-65 -23 -65 -5 0 -6 -4 -3 -10 3 -5 2 -10 -4 -10 -6 0 -7 -7 -4 -17 4 -11 3
-14 -5 -9 -8 5 -12 -2 -12 -19 0 -15 -4 -24 -10 -20 -10 6 -15 -15 -10 -44 2
-13 0 -13 -16 0 -13 10 -16 10 -10 1 5 -8 1 -22 -11 -34 -10 -12 -12 -18 -5
-14 11 7 11 4 1 -12 -7 -12 -17 -18 -23 -15 -5 3 -6 1 -2 -5 3 -6 -1 -17 -9
-25 -11 -12 -12 -17 -2 -20 7 -3 5 -6 -5 -6 -10 -1 -18 -8 -18 -16 0 -9 -7
-18 -15 -21 -8 -4 -13 -9 -11 -13 3 -4 -6 -20 -20 -36 -13 -15 -24 -37 -24
-47 0 -11 -4 -16 -10 -13 -5 3 -10 -1 -10 -10 0 -9 -4 -14 -9 -11 -5 3 -11 0
-14 -8 -6 -16 26 -50 36 -39 4 3 7 -1 7 -11 0 -9 7 -19 15 -22 8 -4 15 -14 16
-23 0 -11 2 -12 6 -3 4 10 9 7 17 -10 7 -12 18 -22 24 -21 7 2 11 0 11 -5 -3
-19 2 -33 11 -27 6 3 13 -1 16 -9 3 -9 10 -13 15 -10 5 3 6 -2 3 -10 -4 -11 0
-16 10 -16 9 0 16 -4 16 -10 0 -5 8 -10 18 -10 14 0 15 -2 2 -10 -13 -9 -13
-10 0 -11 8 -1 18 -1 22 0 5 0 7 -3 5 -7 -1 -5 13 -21 31 -36 17 -15 32 -35
32 -44 0 -15 2 -15 11 -2 9 12 10 10 6 -8 -5 -20 -3 -22 11 -10 12 10 14 10 8
1 -4 -9 -1 -13 10 -13 14 0 14 -3 4 -16 -8 -8 -9 -14 -4 -13 22 4 34 -2 34
-18 0 -9 3 -13 7 -10 7 7 53 -39 53 -54 0 -5 3 -8 8 -8 20 3 32 -3 32 -17 0
-26 25 -45 40 -31 10 9 11 9 5 -2 -4 -8 -2 -17 6 -22 8 -4 15 -13 15 -19 3
-23 5 -24 14 -10 8 13 10 12 10 -2 0 -10 5 -18 11 -18 5 0 7 -4 4 -10 -3 -5 3
-10 14 -10 15 0 21 -6 21 -22 0 -12 3 -18 7 -15 3 4 16 -4 27 -16 12 -13 27
-22 34 -19 7 2 12 0 11 -5 -4 -16 13 -43 28 -43 8 0 11 -4 8 -10 -3 -5 1 -10
9 -10 9 0 16 -7 16 -16 0 -8 5 -12 10 -9 6 3 10 -1 10 -9 0 -8 9 -17 19 -21
11 -3 23 -15 26 -26 4 -10 13 -19 21 -19 8 0 12 -4 9 -10 -3 -5 1 -10 9 -10 9
0 16 -7 16 -16 0 -8 4 -13 9 -10 4 3 13 -6 19 -19 7 -14 18 -25 27 -25 8 0 15
-6 15 -13 0 -8 11 -20 25 -27 13 -7 22 -17 19 -22 -3 -4 2 -8 10 -8 9 0 16 -7
16 -16 0 -8 5 -12 10 -9 6 3 10 -1 10 -9 0 -9 3 -16 8 -16 13 0 71 -57 65 -64
-4 -3 1 -6 10 -6 9 0 17 -7 17 -16 0 -8 5 -12 10 -9 6 3 10 -3 10 -14 0 -12 3
-20 8 -19 14 3 42 -14 36 -23 -3 -5 2 -9 10 -9 9 0 16 -7 16 -15 0 -8 7 -15
16 -15 8 0 12 -4 9 -10 -3 -5 1 -10 9 -10 9 0 16 -7 16 -16 0 -8 5 -12 10 -9
6 3 10 2 10 -2 0 -13 58 -73 70 -73 6 0 8 -4 5 -10 -3 -6 1 -10 10 -10 9 0 13
-4 10 -10 -3 -5 1 -10 9 -10 9 0 16 -7 16 -16 0 -8 5 -12 10 -9 6 3 10 -1 10
-9 0 -9 4 -16 9 -16 13 0 70 -58 63 -65 -3 -3 0 -5 7 -5 17 0 41 -26 41 -44 0
-9 3 -15 8 -14 14 3 42 -14 36 -23 -3 -5 2 -9 10 -9 9 0 16 -7 16 -15 0 -8 5
-15 11 -15 14 0 33 -20 42 -44 4 -10 10 -16 13 -13 8 8 33 -16 27 -25 -2 -5 3
-8 11 -8 9 0 16 -7 16 -15 0 -8 7 -15 16 -15 8 0 12 -4 9 -10 -3 -5 1 -10 10
-10 9 0 13 -4 10 -10 -3 -6 1 -10 9 -10 9 0 16 -7 16 -16 0 -10 6 -14 15 -10
8 3 15 1 15 -3 0 -5 -6 -12 -12 -14 -7 -3 -3 -6 10 -6 12 -1 22 -7 22 -14 0
-8 11 -20 25 -27 13 -7 22 -17 19 -22 -3 -4 0 -8 6 -8 17 0 40 -26 40 -45 0
-9 4 -14 9 -11 5 3 14 -1 21 -9 7 -8 16 -12 21 -9 5 3 9 2 8 -3 -3 -13 12 -43
23 -43 16 0 38 -27 38 -47 0 -15 2 -16 10 -3 8 13 10 12 10 -2 0 -10 7 -18 16
-18 8 0 12 -4 9 -10 -6 -9 7 -14 27 -11 4 0 5 -6 2 -14 -4 -10 0 -15 11 -15 9
0 13 -4 10 -10 -3 -5 -1 -10 5 -10 14 0 40 -25 40 -39 0 -6 7 -11 16 -11 8 0
12 -4 9 -10 -3 -5 1 -10 9 -10 9 0 16 -7 16 -15 0 -8 7 -15 16 -15 8 0 12 -4
9 -10 -3 -5 1 -10 10 -10 9 0 13 -4 10 -10 -3 -6 1 -10 9 -10 9 0 16 -7 16
-16 0 -8 5 -12 10 -9 6 3 10 -1 10 -9 0 -9 7 -16 15 -16 8 0 15 -6 15 -13 0
-8 11 -20 25 -27 13 -7 22 -17 19 -22 -3 -4 2 -8 10 -8 9 0 16 -7 16 -16 0 -8
4 -13 9 -10 5 3 11 -4 14 -16 4 -12 9 -19 13 -15 7 7 54 -41 54 -55 0 -5 7 -8
16 -8 8 0 12 -4 9 -10 -3 -5 1 -10 10 -10 9 0 13 -4 10 -10 -3 -5 -2 -10 4
-10 12 0 71 -58 71 -71 0 -5 7 -9 16 -9 8 0 12 -4 9 -10 -3 -5 1 -10 9 -10 9
0 16 -6 16 -14 0 -9 8 -12 25 -8 14 2 22 8 19 13 -3 5 2 9 10 9 9 0 16 7 16
15 0 8 4 15 10 15 5 0 9 6 7 13 -1 6 6 11 15 11 10 -1 15 2 12 7 -3 5 5 18 18
29 13 11 20 19 16 20 -5 0 0 8 10 18 9 11 21 17 26 14 5 -3 7 2 3 10 -6 18 25
52 38 41 4 -5 5 -2 1 5 -4 6 -3 12 3 12 6 0 7 7 4 17 -4 9 -2 14 4 10 9 -6 43
26 43 41 0 4 16 25 35 46 19 22 35 43 35 48 0 4 7 8 15 8 8 0 14 6 12 13 -1 6
3 11 9 10 6 -1 11 4 11 12 0 8 -5 12 -11 9 -6 -4 4 8 22 24 22 20 28 32 20 35
-8 3 -6 6 5 6 11 1 15 5 11 13 -5 8 -2 9 9 5 9 -3 16 -3 16 1 -1 4 -1 18 0 32
1 19 3 22 10 11 8 -12 11 -9 16 12 4 15 12 27 17 27 6 0 8 7 5 14 -4 10 -1 13
9 9 9 -3 14 2 14 16 0 12 7 24 16 28 8 3 13 12 10 20 -3 8 -2 12 2 10 4 -3 16
7 26 21 11 14 14 22 7 18 -9 -6 -9 -3 1 13 7 12 19 21 26 21 7 0 11 4 7 9 -3
5 2 16 10 24 8 9 15 20 15 25 0 6 3 12 8 14 4 2 15 17 24 33 10 17 23 29 29
27 9 -2 9 1 -1 12 -8 11 -9 16 -1 16 6 0 11 6 11 14 0 8 5 18 12 22 7 5 8 3 3
-6 -5 -8 -4 -11 3 -6 6 3 9 15 7 26 -2 12 0 18 6 15 8 -6 13 8 10 28 0 4 6 7
14 7 10 0 15 11 16 33 0 17 3 26 6 19 2 -6 9 -10 13 -7 5 3 7 12 4 20 -4 8 1
17 9 21 9 3 14 11 11 19 -3 7 2 15 10 18 9 4 16 16 16 27 0 14 4 19 13 14 7
-5 6 0 -3 11 -8 10 -10 16 -4 12 14 -8 44 34 44 62 0 11 4 21 9 23 5 2 11 10
13 18 2 8 9 21 16 28 7 8 10 18 7 23 -4 5 1 9 10 9 9 0 14 4 11 9 -8 13 4 42
15 35 8 -5 13 18 12 53 0 7 4 11 11 10 6 -1 10 8 8 22 -1 17 2 22 13 17 8 -3
14 -2 14 2 -1 4 -1 21 0 37 1 23 3 27 11 15 8 -12 10 -9 10 11 0 15 7 29 15
32 8 4 12 15 10 26 -2 12 3 27 11 35 8 8 14 24 14 36 0 12 5 18 10 15 6 -4 10
5 10 19 0 14 6 26 13 26 8 0 7 4 -3 10 -13 8 -12 10 4 10 14 0 17 5 13 21 -3
12 0 22 9 26 8 3 14 17 14 32 0 14 7 34 15 44 7 11 12 27 10 37 -3 13 1 17 11
13 8 -3 14 -2 13 3 -1 5 -1 23 1 39 1 25 3 27 9 10 6 -15 9 -8 13 29 3 27 12
52 19 57 8 5 10 9 5 9 -5 0 -2 8 5 17 12 15 12 16 -1 8 -12 -7 -11 -3 3 18 9
14 17 35 17 46 0 11 4 21 10 23 5 2 11 20 13 41 2 22 10 43 18 48 8 5 10 9 4
9 -5 0 -4 5 2 11 6 6 9 18 6 27 -5 11 -3 13 8 7 11 -7 11 -5 -1 10 -9 11 -10
16 -2 11 8 -5 12 0 12 16 0 13 4 28 10 34 5 5 11 27 14 48 3 22 11 43 18 47
10 7 10 9 -2 9 -13 0 -13 1 0 10 8 5 11 10 6 10 -4 0 -1 11 8 25 9 13 16 28
16 32 0 4 -5 1 -10 -7 -6 -9 -10 -10 -10 -3 0 6 5 15 10 18 6 3 10 19 10 35 0
15 4 30 9 32 5 2 11 21 12 43 2 22 10 46 19 53 8 8 9 11 3 7 -7 -3 -13 -1 -13
4 0 6 4 11 9 11 5 0 7 13 6 30 -1 16 1 28 5 25 4 -3 10 4 13 15 3 13 1 18 -6
13 -9 -5 -9 -3 0 8 6 8 13 38 14 66 1 29 6 50 11 47 4 -3 8 1 9 8 4 65 7 80
17 90 8 8 8 17 1 31 -8 14 -8 18 0 13 7 -5 11 8 11 39 0 25 4 44 8 41 5 -3 9
1 9 9 0 8 -5 11 -11 8 -6 -3 -5 0 2 8 6 7 12 35 12 61 0 32 4 48 13 48 8 0 7
4 -3 11 -12 8 -12 12 -2 16 10 4 10 8 1 19 -9 11 -8 15 2 19 10 4 14 25 14 75
0 50 3 69 12 66 8 -3 10 3 7 17 -8 31 -7 39 2 61 6 15 4 17 -7 11 -12 -8 -12
-6 -1 8 8 9 12 32 11 51 -2 19 -1 38 3 41 3 3 4 22 1 42 -3 20 -1 33 4 30 5
-4 10 0 10 8 0 8 -5 11 -11 8 -6 -3 -5 0 2 8 15 16 16 65 2 74 -6 4 -690 6
-1520 6 -1154 0 -1509 3 -1503 12 5 9 3 9 -8 0 -18 -15 -643 -17 -634 -3 4 6
4 10 1 10 -3 0 -7 -4 -11 -9z"/>
<path d="M3579 6742 c-5 -43 -4 -52 3 -52 5 0 7 -4 3 -9 -3 -5 -1 -12 5 -16 6
-4 3 -16 -7 -33 -13 -20 -14 -24 -3 -15 13 10 15 7 16 -18 1 -16 -3 -26 -8
-23 -6 4 -6 -2 1 -14 6 -10 10 -37 10 -58 -1 -22 0 -41 1 -44 1 -3 3 -12 5
-20 2 -8 6 -24 10 -35 5 -16 5 -17 -4 -5 -8 12 -10 11 -8 -7 0 -12 5 -19 9
-17 4 3 9 -16 9 -43 3 -114 5 -134 14 -141 6 -4 11 -29 11 -57 1 -27 5 -49 10
-48 6 1 11 -7 11 -18 1 -10 -2 -19 -6 -19 -4 0 -8 -7 -8 -15 0 -8 4 -12 9 -9
4 3 8 -15 8 -40 0 -25 5 -46 10 -46 6 0 10 -5 10 -11 0 -5 -4 -8 -8 -5 -5 3
-9 -1 -9 -9 0 -8 4 -12 9 -9 7 5 9 -2 11 -53 1 -10 6 -21 12 -25 5 -3 10 -27
9 -52 0 -31 4 -47 14 -51 11 -4 12 -8 2 -20 -7 -8 -8 -15 -3 -15 6 0 10 -14
11 -31 0 -17 7 -38 14 -47 7 -9 8 -13 3 -10 -6 4 -12 -3 -12 -15 -2 -17 0 -19
7 -7 5 8 10 13 11 10 0 -3 3 -21 5 -40 2 -19 5 -41 6 -47 1 -7 4 -13 8 -13 4
0 6 -15 6 -32 -1 -21 4 -32 12 -31 16 4 16 -14 0 -20 -10 -4 -10 -6 0 -6 6 -1
12 -12 12 -26 0 -14 5 -25 10 -25 6 0 10 -20 10 -45 0 -25 3 -44 8 -44 21 4
24 -2 7 -14 -14 -11 -15 -16 -5 -22 9 -5 11 -4 6 3 -4 7 -2 12 3 12 6 0 11
-15 11 -33 0 -18 4 -37 10 -43 5 -5 11 -22 12 -37 1 -14 8 -29 14 -31 7 -3 11
-22 9 -48 -1 -24 0 -37 2 -30 3 6 9 12 14 12 6 0 8 -4 5 -8 -3 -5 2 -21 10
-36 7 -16 14 -39 14 -52 0 -13 6 -24 13 -24 8 0 7 -4 -3 -10 -13 -8 -12 -10 3
-10 10 0 15 -5 12 -10 -8 -13 4 -52 15 -45 4 3 8 -1 7 -8 -1 -40 4 -58 15 -51
8 5 9 2 5 -9 -3 -9 -2 -19 4 -22 5 -4 7 -10 4 -15 -3 -5 2 -15 11 -24 8 -9 13
-20 10 -25 -4 -5 -1 -15 6 -23 7 -7 15 -22 16 -33 2 -11 8 -21 13 -23 5 -2 9
-13 9 -24 0 -10 6 -26 14 -34 8 -7 13 -25 12 -38 -2 -15 1 -23 8 -20 7 3 13
-7 14 -23 1 -16 8 -32 15 -38 6 -5 14 -19 15 -30 2 -11 8 -21 13 -23 5 -2 9
-14 9 -27 0 -12 7 -26 16 -29 8 -3 12 -10 9 -16 -3 -5 -2 -10 3 -10 5 0 9 -7
10 -15 1 -8 3 -22 4 -30 1 -8 8 -15 16 -15 10 0 13 -7 9 -21 -3 -12 0 -22 9
-26 8 -3 14 -11 14 -18 0 -7 5 -15 11 -17 9 -3 15 -22 18 -51 1 -5 6 -5 11 -2
6 4 10 3 9 -2 -4 -25 2 -43 13 -37 8 5 9 2 5 -9 -3 -10 -2 -17 4 -17 6 0 7 -4
4 -10 -3 -5 -1 -10 5 -10 6 0 8 -4 5 -10 -3 -5 -1 -10 4 -10 6 0 11 -6 11 -14
0 -7 6 -19 14 -26 8 -6 12 -19 9 -27 -4 -11 -2 -14 5 -9 7 4 12 1 12 -7 0 -8
7 -18 16 -21 9 -4 14 -13 10 -21 -3 -8 -1 -15 5 -15 6 0 7 -4 4 -10 -3 -5 -1
-10 4 -10 6 0 11 -7 11 -15 0 -8 5 -15 10 -15 6 0 10 -6 10 -14 0 -8 8 -22 18
-32 9 -10 17 -20 17 -23 0 -3 3 -5 8 -3 4 1 6 -1 6 -5 -4 -25 2 -43 13 -37 7
5 9 2 5 -8 -3 -9 2 -23 13 -33 11 -10 17 -22 14 -26 -3 -5 2 -9 10 -9 14 0 20
-12 17 -32 0 -5 4 -8 10 -8 6 0 8 -7 5 -16 -3 -8 -2 -13 3 -10 12 8 34 -21 26
-34 -5 -9 7 -14 27 -11 4 0 5 -6 2 -14 -4 -8 -2 -15 4 -15 5 0 13 -11 16 -25
4 -14 11 -23 16 -20 6 3 10 -1 10 -9 0 -9 6 -16 13 -16 8 0 7 -4 -3 -10 -13
-8 -13 -10 2 -10 12 0 15 -5 11 -15 -3 -9 -1 -15 6 -13 6 2 17 -8 24 -22 8
-14 20 -24 27 -22 11 3 11 0 0 -13 -11 -14 -11 -16 1 -13 8 2 13 -3 12 -9 -2
-7 4 -13 13 -13 8 0 12 -5 9 -10 -3 -6 1 -13 9 -16 9 -3 16 -15 16 -25 0 -10
4 -19 9 -19 5 0 13 -10 16 -21 6 -17 9 -19 16 -8 7 11 9 10 9 -3 0 -10 5 -18
11 -18 5 0 7 -4 4 -10 -3 -5 -2 -10 4 -10 6 0 8 -7 5 -15 -5 -11 -2 -13 12 -8
13 5 16 3 11 -10 -4 -11 -1 -17 8 -17 8 0 15 -7 15 -16 0 -8 4 -13 8 -10 4 2
14 -4 21 -16 7 -11 8 -17 2 -13 -6 3 -11 4 -11 0 0 -3 11 -10 25 -15 15 -6 25
-17 25 -30 0 -11 7 -20 16 -20 8 0 12 -4 9 -10 -3 -5 1 -10 10 -10 9 0 14 -4
11 -8 -3 -5 4 -16 15 -25 11 -10 17 -23 13 -29 -4 -7 -3 -8 4 -4 6 4 19 -6 29
-21 25 -39 36 -49 61 -57 14 -5 22 -3 22 4 0 6 10 15 23 20 12 5 16 9 9 9 -7
1 -1 12 14 26 14 13 31 22 37 18 6 -3 7 -1 3 5 -4 7 -2 12 4 12 6 0 8 4 5 10
-3 6 1 10 9 10 9 0 16 5 16 10 0 6 10 15 23 20 12 5 16 9 9 9 -10 1 -10 4 0
15 7 8 16 12 20 10 4 -2 9 5 13 16 4 11 11 18 16 15 5 -4 9 0 9 8 0 8 9 17 21
20 11 3 23 15 26 26 3 11 9 19 13 16 4 -3 11 2 14 11 3 8 10 12 16 9 6 -4 7 1
3 11 -4 11 -3 15 5 10 6 -3 13 2 17 13 3 10 15 21 26 24 11 3 23 15 26 26 3
11 9 18 14 15 5 -3 9 2 9 10 0 9 7 16 15 16 9 0 20 11 27 25 6 13 15 22 19 19
5 -3 9 3 9 13 0 14 2 15 9 5 7 -11 9 -10 15 3 3 9 11 13 17 9 8 -4 9 -3 5 4
-8 14 24 61 42 62 6 0 12 7 12 15 0 8 5 14 12 12 6 -1 17 8 23 21 7 13 16 23
21 23 5 -1 10 4 10 9 3 23 5 24 14 10 8 -12 10 -10 10 8 0 13 4 21 9 18 5 -3
12 1 15 10 3 8 11 12 17 8 7 -4 9 -3 6 3 -3 5 5 17 19 27 13 11 24 25 24 32 0
8 6 11 15 7 9 -3 15 -2 14 3 -4 21 2 35 11 29 6 -3 10 2 10 12 0 15 2 16 10 3
8 -12 10 -10 10 8 0 13 4 20 10 17 6 -3 10 -1 10 4 0 6 8 11 18 11 14 0 15 2
2 10 -13 8 -12 10 3 10 10 0 15 4 12 10 -3 6 1 10 10 10 11 0 15 5 12 14 -4
10 -1 13 9 9 9 -3 14 1 14 12 0 9 5 13 10 10 6 -3 10 0 10 8 0 8 9 17 21 20
11 3 23 15 26 26 3 12 12 21 20 21 8 0 11 5 7 12 -5 8 -2 9 10 5 9 -4 15 -3
12 2 -3 5 1 11 9 15 8 3 15 13 15 21 0 9 4 14 9 11 5 -3 12 1 15 10 3 9 11 12
18 8 7 -4 10 -4 6 1 -4 4 7 20 24 35 17 15 28 32 24 39 -5 7 -1 9 8 5 9 -3 16
-1 16 6 0 6 6 18 14 26 11 11 16 11 19 1 3 -6 6 -2 6 11 1 13 5 20 11 17 6 -3
10 -1 10 4 0 6 8 11 18 11 14 0 15 2 2 10 -13 8 -12 10 3 10 10 0 15 5 12 10
-3 6 1 10 10 10 11 0 15 5 12 14 -4 10 -1 13 9 9 7 -3 14 0 14 6 0 7 10 16 23
21 12 5 16 9 9 9 -10 1 -10 5 2 17 9 8 20 12 26 9 6 -4 10 -3 9 2 -4 21 2 33
17 33 9 0 12 5 8 12 -5 8 -2 9 10 5 9 -4 15 -3 12 2 -3 5 1 11 9 15 8 3 15 13
15 21 0 9 4 14 9 11 5 -3 12 1 15 10 3 9 11 12 18 8 7 -4 10 -4 6 1 -5 5 1 15
12 22 11 8 18 19 15 24 -4 5 1 9 10 9 11 0 15 5 12 14 -4 10 -1 13 9 9 7 -3
14 0 14 7 0 15 25 40 40 40 7 0 10 7 6 15 -4 10 1 15 15 15 11 0 17 5 14 10
-6 9 8 14 28 11 5 -1 6 3 2 9 -3 5 -1 10 4 10 6 0 11 5 11 11 0 13 25 39 39
39 6 0 17 12 25 28 8 15 18 27 23 27 4 0 7 3 6 8 -3 6 12 11 29 8 4 0 4 7 1
16 -4 11 -3 14 5 9 7 -4 12 -1 12 8 0 14 12 20 32 17 5 0 7 2 6 7 -2 12 14 42
21 39 3 -2 17 8 31 21 14 14 18 21 10 17 -13 -8 -13 -6 -2 7 8 9 20 14 28 11
8 -3 14 -2 13 3 -3 20 2 35 10 29 5 -3 12 3 16 14 4 13 13 18 26 16 17 -4 19
-2 9 10 -12 15 -4 20 22 16 5 0 7 2 7 7 -4 22 2 42 11 37 6 -4 7 -11 4 -17 -4
-7 -2 -8 5 -4 6 4 9 11 6 16 -3 4 2 10 10 14 8 3 15 13 15 23 0 15 2 16 10 3
8 -12 10 -10 10 8 0 13 4 21 9 17 5 -3 13 4 16 16 4 11 9 18 13 15 8 -9 42 25
42 41 0 8 5 11 10 8 6 -3 10 2 10 12 0 15 2 16 10 3 8 -12 10 -10 10 8 0 13 4
21 9 18 5 -3 12 1 15 10 3 8 11 12 17 8 8 -4 9 -3 5 4 -4 7 -2 12 4 12 6 0 8
5 5 10 -5 9 16 15 38 11 5 -1 6 3 3 8 -8 13 4 42 15 35 5 -3 9 2 9 10 0 9 7
16 16 16 8 0 12 5 9 10 -3 6 1 10 9 10 9 0 16 7 16 16 0 8 5 12 10 9 6 -3 10
1 10 9 0 9 7 16 16 16 10 0 14 6 11 14 -4 10 -1 13 9 9 9 -3 14 1 14 12 0 9 5
13 10 10 6 -3 10 1 10 9 0 9 7 16 15 16 8 0 20 11 27 24 7 14 17 26 23 28 5 2
9 9 7 15 -2 8 3 10 13 7 10 -4 15 0 15 11 0 9 5 13 10 10 6 -3 10 1 10 9 0 14
12 20 32 17 5 0 7 2 6 7 -3 14 14 42 23 36 5 -3 9 0 9 6 0 6 4 9 8 6 4 -2 9 7
10 22 1 18 -1 23 -7 14 -7 -11 -9 -11 -14 2 -3 8 -1 17 6 20 7 2 3 5 -8 5 -14
1 -21 8 -22 22 -1 11 -11 29 -22 39 -12 9 -21 22 -21 28 0 5 -7 13 -16 16 -9
4 -14 13 -10 21 3 9 0 15 -9 15 -8 0 -12 6 -9 14 3 8 -3 19 -15 25 -12 7 -18
17 -15 26 4 8 -1 18 -10 21 -9 3 -16 12 -16 20 0 8 -4 14 -10 14 -5 0 -10 14
-10 31 0 17 -4 28 -10 24 -5 -3 -10 -1 -10 4 0 20 -3 26 -19 39 -9 8 -10 10
-3 7 11 -6 11 -3 0 14 -7 12 -15 21 -19 21 -5 0 -7 8 -11 49 -1 11 -7 19 -13
18 -5 -1 -9 8 -9 21 1 15 -2 19 -10 13 -8 -6 -12 0 -13 22 -1 17 -7 34 -13 37
-6 4 -12 22 -12 39 -1 18 -7 35 -14 38 -7 2 -10 11 -7 19 3 8 -3 17 -13 21
-16 6 -16 7 2 14 17 7 17 8 2 8 -13 1 -18 9 -18 32 0 17 -4 28 -10 24 -5 -3
-7 0 -4 8 3 8 1 18 -4 21 -6 3 -8 15 -5 26 3 12 -2 29 -12 40 -10 11 -15 28
-12 40 3 12 -1 24 -11 30 -10 5 -12 10 -4 10 6 0 12 5 12 11 0 5 -4 7 -10 4
-6 -4 -10 8 -10 29 0 19 -4 38 -10 41 -5 3 -10 26 -10 51 0 28 -4 44 -12 44
-9 0 -10 3 -2 8 13 8 15 42 2 42 -4 0 -8 -5 -8 -12 0 -6 -3 -8 -6 -5 -4 4 -1
13 5 21 11 13 -221 15 -1938 15 -1073 0 -1951 -3 -1952 -7z m66 -521 c3 -5 2
-12 -3 -15 -5 -3 -9 1 -9 9 0 17 3 19 12 6z"/>
<path d="M16693 5795 c0 -8 4 -12 9 -9 5 3 6 10 3 15 -9 13 -12 11 -12 -6z"/>
<path d="M11835 4941 c6 -11 3 -13 -13 -9 -15 4 -22 2 -22 -8 0 -13 -12 -18
-32 -15 -5 0 -7 -5 -5 -11 1 -8 -6 -12 -17 -10 -14 3 -17 -1 -13 -13 5 -11 2
-15 -11 -13 -9 2 -16 -2 -15 -9 2 -7 -4 -10 -12 -7 -8 4 -15 1 -15 -6 0 -6 -4
-8 -10 -5 -5 3 -10 1 -10 -4 0 -6 -6 -11 -14 -11 -8 0 -18 -5 -22 -12 -5 -7
-2 -8 7 -3 8 5 10 4 6 0 -4 -5 -15 -10 -25 -11 -9 -2 -18 -8 -20 -13 -2 -6
-13 -11 -23 -11 -11 0 -18 -4 -14 -9 3 -6 -4 -8 -15 -6 -11 2 -18 0 -15 -6 4
-5 -2 -9 -12 -9 -23 -1 -55 -25 -46 -34 4 -4 0 -4 -10 0 -9 3 -17 1 -17 -4 0
-6 -9 -9 -20 -7 -13 2 -20 -2 -20 -11 0 -8 -4 -13 -9 -10 -4 3 -17 -1 -27 -9
-10 -8 -29 -15 -41 -15 -15 0 -23 -6 -23 -17 0 -14 -2 -15 -9 -4 -6 9 -11 10
-15 2 -4 -6 -11 -9 -16 -6 -5 3 -12 0 -16 -6 -5 -8 -3 -9 6 -4 8 5 11 4 7 -2
-4 -5 -20 -10 -38 -11 -17 0 -40 -8 -50 -18 -10 -9 -19 -14 -19 -11 0 3 -11 0
-25 -7 -14 -8 -39 -12 -55 -11 -16 1 -27 -1 -24 -6 3 -5 10 -6 16 -3 6 4 8 3
5 -2 -3 -6 -23 -11 -43 -12 -21 -2 -41 -8 -45 -13 -3 -6 -9 -10 -13 -10 -33 5
-57 -1 -53 -11 3 -10 -12 -13 -58 -13 -35 0 -61 -3 -59 -7 3 -5 0 -9 -5 -9 -6
-1 -15 -3 -21 -4 -5 -1 -25 -3 -42 -4 -25 -1 -29 -4 -18 -11 9 -6 10 -10 3
-10 -6 0 -15 5 -18 10 -3 6 -12 10 -18 10 -7 0 -6 -4 3 -10 11 -6 7 -9 -15 -9
-56 -2 -61 -4 -61 -27 0 -12 4 -20 8 -18 4 3 8 -2 8 -11 0 -9 -4 -14 -8 -11
-4 2 -8 -4 -8 -14 0 -10 3 -17 6 -15 3 2 6 -12 6 -30 0 -18 -3 -32 -6 -30 -3
2 -7 -6 -7 -18 -2 -17 0 -19 7 -7 8 13 10 12 10 -2 0 -10 -4 -18 -10 -18 -5 0
-10 -8 -10 -17 0 -15 2 -16 10 -3 8 12 10 10 10 -8 0 -13 -3 -21 -7 -19 -5 3
-8 -17 -9 -44 -1 -32 3 -46 10 -42 6 3 5 0 -1 -8 -7 -7 -13 -18 -13 -23 0 -6
5 -4 10 4 8 12 10 10 10 -8 0 -13 -4 -21 -8 -18 -4 2 -8 -4 -8 -14 0 -10 3
-17 6 -15 3 2 6 -12 6 -30 0 -18 -3 -32 -6 -30 -3 2 -7 -6 -7 -18 -2 -17 0
-19 7 -7 8 13 10 12 10 -2 0 -10 -4 -18 -10 -18 -5 0 -10 -5 -10 -11 0 -5 6
-7 13 -3 10 6 10 4 0 -7 -7 -7 -13 -18 -13 -23 0 -6 5 -4 10 4 8 12 10 10 10
-8 0 -13 -4 -21 -9 -18 -8 6 -7 -27 3 -72 3 -13 1 -20 -5 -17 -5 4 -9 -1 -9
-10 0 -10 5 -14 13 -9 10 6 10 4 0 -7 -7 -7 -13 -18 -13 -24 0 -5 5 -3 10 5 8
12 10 10 10 -8 0 -13 -3 -21 -7 -19 -5 3 -8 -37 -8 -88 0 -51 3 -91 7 -89 4 3
8 -2 8 -11 0 -9 -4 -14 -8 -11 -4 2 -8 -4 -8 -14 0 -10 3 -17 6 -15 3 2 6 -12
6 -30 0 -18 -3 -32 -6 -30 -3 2 -7 -6 -7 -18 -2 -17 0 -19 7 -7 8 12 10 10 10
-8 0 -13 -4 -21 -8 -18 -5 3 -9 -1 -9 -9 0 -8 4 -12 9 -9 4 3 8 0 8 -5 0 -6
-4 -11 -10 -11 -5 0 -10 -5 -10 -11 0 -5 6 -7 13 -3 10 6 10 4 0 -7 -7 -7 -13
-18 -13 -23 0 -6 5 -4 10 4 8 12 10 10 10 -8 0 -13 -4 -21 -8 -18 -4 2 -8 -4
-8 -14 0 -10 3 -17 6 -15 3 2 6 -12 6 -30 0 -18 -3 -32 -6 -30 -3 2 -7 -6 -7
-18 -2 -17 0 -19 7 -7 8 12 10 10 10 -8 0 -13 -4 -21 -8 -18 -5 3 -9 -1 -9 -9
0 -8 4 -12 9 -9 4 3 8 0 8 -5 0 -6 -4 -11 -10 -11 -5 0 -10 -5 -10 -11 0 -5 6
-7 13 -3 10 6 10 4 0 -7 -7 -7 -13 -18 -13 -23 0 -6 5 -4 10 4 8 12 10 10 10
-8 0 -13 -4 -21 -8 -18 -4 2 -8 -4 -8 -14 0 -10 3 -17 6 -15 4 2 7 -2 7 -10 0
-8 -4 -12 -9 -9 -4 3 -8 -2 -8 -11 0 -10 5 -14 13 -9 10 6 10 4 0 -7 -7 -7
-13 -18 -13 -23 0 -6 5 -4 10 4 8 12 10 10 10 -8 0 -13 -4 -21 -9 -18 -8 6 -7
-27 3 -72 3 -13 1 -20 -5 -17 -5 4 -9 -1 -9 -10 0 -10 5 -14 13 -9 10 6 10 4
0 -7 -7 -7 -13 -18 -13 -23 0 -6 5 -4 10 4 8 12 10 10 10 -8 0 -13 -3 -21 -7
-19 -5 3 -8 -33 -8 -79 -1 -46 3 -78 7 -71 5 8 8 4 8 -11 0 -13 -4 -21 -8 -18
-5 3 -9 -1 -9 -9 0 -8 4 -12 9 -9 4 3 8 -2 8 -11 0 -10 -5 -13 -12 -9 -10 6
-10 5 -1 -7 10 -12 10 -18 0 -29 -9 -10 -9 -11 1 -6 7 5 12 1 12 -9 0 -9 -4
-14 -8 -11 -4 2 -8 -4 -8 -14 0 -10 3 -17 6 -15 3 2 6 -12 6 -30 0 -18 -3 -32
-6 -30 -3 2 -7 -6 -7 -18 -2 -17 0 -19 7 -7 8 13 10 12 10 -2 0 -10 -4 -18
-10 -18 -5 0 -10 -8 -10 -17 0 -15 2 -16 10 -3 8 12 10 10 10 -8 0 -13 -3 -21
-7 -19 -5 3 -8 -17 -9 -44 -1 -32 3 -46 10 -42 6 3 5 0 -1 -8 -7 -7 -13 -18
-13 -23 0 -6 5 -4 10 4 8 12 10 10 10 -8 0 -13 -4 -21 -8 -18 -4 2 -8 -4 -8
-14 0 -10 3 -17 6 -15 3 2 6 -12 6 -30 0 -18 -3 -32 -6 -30 -3 2 -7 -6 -7 -18
-2 -17 0 -19 7 -7 8 13 10 12 10 -2 0 -10 -4 -18 -10 -18 -5 0 -10 -5 -10 -11
0 -5 6 -7 13 -3 10 6 10 4 0 -7 -7 -7 -13 -18 -13 -23 0 -6 5 -4 10 4 8 12 10
10 10 -8 0 -13 -4 -21 -9 -18 -8 6 -7 -27 3 -72 3 -13 1 -20 -5 -17 -5 4 -9
-1 -9 -10 0 -10 5 -14 13 -9 10 6 10 4 0 -7 -7 -7 -13 -18 -13 -23 0 -6 5 -4
10 4 8 12 10 10 10 -8 0 -13 -3 -21 -7 -19 -5 3 -8 -37 -8 -88 0 -51 3 -91 7
-89 4 3 8 -2 8 -11 0 -9 -4 -14 -8 -11 -4 2 -8 -4 -8 -14 0 -10 3 -17 6 -15 3
2 6 -12 6 -30 0 -18 -3 -32 -6 -30 -3 2 -7 -6 -7 -18 -2 -17 0 -19 7 -7 8 12
10 10 10 -8 0 -13 -4 -21 -8 -18 -5 3 -9 -1 -9 -9 0 -8 4 -12 9 -9 4 3 8 0 8
-5 0 -6 -4 -11 -10 -11 -5 0 -10 -5 -10 -11 0 -5 6 -7 13 -3 10 6 10 4 0 -7
-7 -7 -13 -18 -13 -24 0 -5 5 -3 10 5 8 12 10 10 10 -8 0 -13 -4 -21 -8 -18
-4 2 -8 -4 -8 -14 0 -10 3 -17 6 -15 3 2 6 -12 6 -30 0 -18 -3 -32 -6 -30 -3
2 -7 -6 -7 -18 -2 -17 0 -19 7 -7 8 12 10 10 10 -8 0 -13 -4 -21 -8 -18 -5 3
-9 -1 -9 -9 0 -8 4 -12 9 -9 4 3 8 0 8 -5 0 -6 -4 -11 -10 -11 -5 0 -10 -5
-10 -11 0 -5 6 -7 13 -3 10 6 10 4 0 -7 -7 -7 -13 -18 -13 -24 0 -5 5 -3 10 5
8 12 10 10 10 -8 0 -13 -4 -21 -8 -18 -4 2 -8 -4 -8 -14 0 -10 3 -17 6 -15 4
2 7 -2 7 -10 0 -8 -4 -12 -9 -9 -4 3 -8 -2 -8 -11 0 -10 5 -14 13 -9 10 6 10
4 0 -7 -7 -7 -13 -18 -13 -24 0 -5 5 -3 10 5 8 12 10 10 10 -8 0 -13 -4 -21
-9 -18 -8 6 -7 -27 3 -72 3 -13 1 -20 -5 -17 -5 4 -9 -1 -9 -10 0 -10 5 -14
13 -9 10 6 10 4 0 -7 -7 -7 -13 -18 -13 -24 0 -5 5 -3 10 5 8 12 10 10 10 -8
0 -13 -3 -21 -7 -19 -5 3 -8 -33 -8 -79 -1 -46 3 -78 7 -71 5 8 8 4 8 -11 0
-13 -4 -21 -8 -18 -5 3 -9 -1 -9 -9 0 -8 4 -12 9 -9 4 3 8 -2 8 -11 0 -10 -5
-14 -12 -9 -10 5 -10 4 -1 -6 6 -7 9 -19 6 -26 -4 -11 13 -14 85 -14 63 0 92
4 95 13 4 9 6 9 6 0 1 -15 31 -18 31 -3 0 6 5 10 11 10 5 0 7 -6 3 -12 -6 -10
-4 -10 8 0 9 7 48 13 89 15 55 2 73 6 71 15 -1 8 2 11 8 7 6 -3 8 -11 5 -16
-4 -5 1 -9 10 -9 9 0 13 4 10 10 -3 5 -2 10 4 10 5 0 12 -6 14 -12 4 -9 6 -8
6 3 1 11 10 15 34 14 17 -1 38 3 46 9 12 9 13 8 6 -4 -8 -13 -7 -13 8 -1 14
11 17 11 17 0 0 -8 5 -6 13 6 10 13 16 15 21 6 6 -9 11 -9 21 -1 8 6 19 10 27
9 7 -1 29 -1 48 0 27 1 31 4 20 11 -8 5 -10 10 -4 10 5 0 16 -6 23 -13 10 -10
15 -8 27 7 8 11 14 14 14 8 0 -9 5 -10 18 -4 9 5 27 8 40 6 13 -2 21 0 18 5
-3 5 1 12 10 15 10 4 13 2 8 -6 -5 -8 -2 -9 12 -3 10 5 31 9 46 10 15 1 33 7
41 13 10 9 17 8 27 -1 10 -9 11 -9 6 1 -5 9 4 12 34 12 30 0 39 3 34 13 -5 7
0 6 11 -3 11 -9 16 -10 11 -3 -5 10 3 13 31 14 21 1 42 1 47 0 5 -1 6 4 4 11
-4 9 7 13 41 14 33 0 45 4 43 14 -3 11 0 11 14 -1 12 -9 15 -9 10 -1 -4 6 -2
12 3 12 6 0 11 -6 11 -12 0 -8 3 -9 8 -3 10 14 55 39 47 26 -3 -6 -1 -11 5
-11 6 0 13 6 16 14 4 9 17 13 40 11 19 -1 37 2 41 8 4 6 1 7 -7 2 -9 -5 -11
-4 -6 3 5 9 13 9 28 1 15 -8 19 -8 14 0 -6 10 21 17 47 12 5 -1 6 3 2 9 -5 9
40 16 69 11 5 -1 6 4 3 12 -4 10 4 13 35 11 29 -2 37 1 29 9 -7 9 1 13 27 15
21 1 39 7 40 12 2 6 8 10 13 10 6 0 7 -6 4 -12 -4 -7 -1 -6 7 3 7 9 23 14 36
12 13 -1 21 1 18 6 -7 11 12 18 46 17 18 -1 24 2 18 9 -6 7 2 12 23 13 18 2
34 7 35 12 2 6 17 10 33 10 17 0 28 4 25 9 -3 5 10 12 29 15 19 4 35 11 35 16
0 6 3 9 8 9 22 -4 52 2 48 9 -3 5 0 9 7 10 31 3 49 9 57 21 6 11 9 11 13 0 4
-10 6 -10 6 -1 1 6 8 12 16 12 8 0 15 5 15 10 0 6 12 10 26 10 14 0 23 4 20 8
-4 7 10 11 52 14 6 1 12 5 12 9 0 4 9 11 20 14 11 4 18 10 15 15 -3 4 1 8 8 7
37 -1 57 5 57 17 0 8 9 12 25 11 16 -2 25 2 25 11 0 8 9 14 21 14 13 0 18 4
13 13 -4 6 -4 9 0 5 11 -9 67 12 60 23 -3 6 6 8 20 5 19 -3 26 0 26 10 0 8 4
13 9 9 5 -3 12 -1 16 5 4 6 11 8 16 5 5 -4 9 -2 9 4 0 6 11 13 25 17 14 3 25
10 25 16 0 5 4 7 9 3 5 -3 16 2 24 10 9 8 20 15 26 15 6 0 11 5 11 10 0 6 9
10 20 10 11 0 20 5 20 10 0 6 6 10 13 10 8 0 24 9 37 20 12 11 27 17 31 14 5
-3 9 2 9 10 0 10 6 13 15 10 8 -4 15 -1 15 4 0 12 55 42 77 42 7 0 12 6 10 12
-1 7 6 12 16 10 11 -2 17 4 18 15 0 10 3 13 6 6 3 -10 7 -10 18 0 7 7 11 15 9
18 -2 3 3 6 11 7 8 1 22 3 30 4 8 1 12 5 9 10 -4 5 3 12 15 15 12 3 21 9 21
14 0 5 3 8 8 8 20 -3 32 3 32 17 0 8 4 13 9 10 5 -4 11 -1 13 4 2 6 13 12 25
13 18 1 20 4 10 17 -6 8 -8 12 -3 8 11 -9 64 18 95 48 13 13 30 24 38 24 8 0
11 4 8 10 -5 9 16 15 38 11 5 -1 5 3 2 9 -4 7 2 14 14 17 11 3 18 9 15 14 -3
5 3 9 13 9 21 0 55 35 45 46 -4 4 -2 4 5 1 6 -4 18 0 26 8 9 8 24 15 34 15 14
0 15 2 5 9 -10 6 -8 10 8 14 13 3 19 10 15 17 -3 6 -3 10 2 9 22 -4 33 3 34
19 0 9 3 12 5 5 4 -8 13 -5 29 9 14 12 22 26 18 31 -3 6 -1 7 5 3 6 -3 17 1
25 9 9 8 21 15 27 15 6 0 9 4 6 8 -6 11 30 42 49 42 8 0 12 6 9 15 -4 10 0 13
16 10 19 -4 20 -2 8 12 -7 10 -8 14 -1 10 6 -4 18 0 26 8 9 8 18 15 22 15 14
0 35 30 35 49 0 20 -9 25 -40 22 -13 -2 -13 0 -1 8 12 8 12 12 -2 25 -8 9 -21
16 -27 16 -6 0 -8 5 -5 10 3 6 -4 10 -17 10 -18 0 -20 2 -8 10 13 9 13 10 0
11 -8 1 -19 1 -24 0 -5 -1 -3 6 5 15 12 16 12 17 -2 12 -9 -4 -20 2 -28 13 -6
11 -16 17 -21 14 -6 -4 -7 1 -3 11 5 13 3 15 -7 9 -10 -6 -12 -4 -7 8 4 11 1
17 -8 17 -8 0 -15 5 -15 10 0 6 -5 10 -11 10 -16 0 -65 56 -61 69 2 7 -3 8
-14 4 -13 -5 -16 -3 -11 10 3 9 2 17 -2 17 -5 0 -12 -6 -14 -12 -3 -8 -6 -5
-6 5 -1 19 -56 77 -73 77 -5 0 -7 4 -4 9 3 4 -6 13 -19 19 -14 7 -25 19 -25
27 0 9 -4 13 -10 10 -5 -3 -10 1 -10 9 0 10 -9 16 -22 17 -13 0 -18 3 -11 5
13 6 -69 94 -87 94 -6 0 -8 5 -5 10 6 9 -8 15 -29 11 -5 -1 -3 5 4 14 7 9 9
15 4 14 -20 -3 -35 1 -30 10 3 5 -3 11 -14 14 -11 3 -20 13 -20 22 0 15 -3 15
-15 5 -13 -11 -14 -10 -10 2 6 16 -28 62 -39 51 -3 -3 -6 1 -6 11 0 9 -4 14
-10 11 -5 -3 -10 1 -10 10 0 11 -5 15 -15 11 -8 -3 -14 -2 -14 2 3 20 -3 32
-16 32 -8 0 -15 7 -15 16 0 8 -4 12 -10 9 -5 -3 -10 1 -10 9 0 9 -7 16 -16 16
-8 0 -12 5 -9 10 3 5 0 10 -7 10 -16 0 -49 36 -41 44 6 6 -12 10 -30 7 -4 0
-6 2 -5 6 3 15 -14 43 -23 37 -5 -3 -9 2 -9 10 0 10 -9 16 -22 17 -13 0 -17 3
-10 6 6 2 12 9 12 14 0 4 -8 5 -17 2 -13 -5 -15 -2 -10 11 5 14 3 17 -8 12 -8
-3 -15 -1 -15 5 0 6 -5 7 -12 3 -6 -4 -8 -3 -4 4 3 6 2 13 -4 17 -6 4 -8 11
-5 16 3 5 -1 6 -9 3 -11 -4 -16 0 -16 11 0 9 -4 13 -10 10 -5 -3 -10 1 -10 10
0 9 -4 13 -10 10 -5 -3 -10 1 -10 9 0 9 -5 16 -11 16 -5 0 -7 -5 -3 -12 4 -7
3 -8 -5 -4 -6 4 -9 11 -6 16 3 5 -3 15 -14 21 -11 8 -17 19 -13 28 5 14 4 14
-12 2 -9 -8 -16 -10 -15 -5 1 5 1 16 0 24 -1 13 -2 13 -11 0 -8 -12 -10 -10
-10 8 0 13 -4 20 -10 17 -5 -3 -10 -1 -10 6 0 20 -71 78 -89 72 -13 -4 -13 -3
-2 5 12 9 12 13 -2 26 -8 9 -21 16 -27 16 -6 0 -8 5 -5 10 3 6 -4 10 -17 11
-13 0 -17 3 -11 6 8 3 -1 17 -24 38 -20 19 -40 32 -45 29 -4 -3 -5 3 -1 12 4
12 3 15 -5 10 -7 -4 -12 -1 -12 8 0 9 -4 16 -10 16 -5 0 -10 7 -10 16 0 8 -4
12 -10 9 -5 -3 -18 -1 -27 5 -16 10 -16 11 2 6 15 -5 13 0 -9 18 -16 13 -34
23 -40 22 -6 -2 -8 -1 -3 1 13 8 7 23 -10 23 -9 0 -14 3 -10 6 8 8 -18 34 -34
34 -7 0 -9 3 -6 7 4 3 -7 15 -24 25 -16 10 -27 23 -24 28 3 6 -1 10 -9 10 -9
0 -16 7 -16 16 0 8 -4 12 -10 9 -5 -3 -10 1 -10 10 0 9 -4 13 -10 10 -5 -3
-10 1 -10 10 0 9 -4 13 -10 10 -5 -3 -10 1 -10 9 0 19 -16 21 -24 4 -3 -7 -3
-3 -1 8 5 20 -16 40 -37 36 -5 -1 -7 1 -6 6 3 14 -14 42 -23 36 -5 -3 -9 2 -9
11 0 9 -4 13 -10 10 -5 -3 -10 1 -10 9 0 9 -7 16 -15 16 -8 0 -14 6 -12 13 1
6 -4 11 -11 9 -7 -1 -20 11 -30 28 -11 16 -22 27 -25 23 -4 -3 -7 -1 -7 6 0
16 -25 41 -40 41 -7 0 -9 7 -6 16 3 8 2 12 -3 9 -5 -3 -12 -1 -16 5 -4 6 -11
8 -16 4 -5 -3 -9 -2 -8 3 3 20 -2 34 -11 28 -9 -6 -15 8 -11 29 1 5 -6 3 -15
-5 -10 -8 -15 -9 -11 -3 4 6 -2 21 -12 33 -14 16 -21 18 -24 9 -3 -7 -6 -3 -6
10 -1 13 -5 21 -10 17 -5 -3 -12 3 -16 14 -3 11 -13 22 -21 25 -8 3 -12 10 -9
16 3 6 -1 7 -9 4 -11 -4 -16 0 -16 11 0 9 -4 13 -10 10 -5 -3 -10 1 -10 9 0 9
-4 16 -10 16 -5 0 -10 7 -10 15 0 9 -6 12 -17 8 -13 -5 -15 -2 -10 11 5 14 3
17 -8 12 -8 -3 -15 -1 -15 5 0 6 -5 7 -12 3 -7 -4 -8 -3 -4 5 4 7 -2 15 -16
20 -14 6 -17 10 -8 11 9 1 6 5 -7 10 -13 5 -23 16 -23 25 0 8 -7 15 -16 15
-10 0 -14 5 -10 16 3 8 2 12 -4 9 -10 -6 -70 48 -70 63 0 6 -9 12 -20 15 -11
3 -20 13 -20 22 0 9 -4 13 -10 10 -5 -3 -10 1 -10 10 0 9 -4 14 -9 10 -5 -3
-12 4 -16 15 -3 11 -13 20 -21 20 -8 0 -14 7 -14 16 0 8 -4 12 -10 9 -5 -3
-10 -1 -10 5 0 12 -11 24 -44 50 -16 12 -18 12 -11 1z m-628 -357 c-3 -3 -12
-4 -19 -1 -8 3 -5 6 6 6 11 1 17 -2 13 -5z m-582 -1024 c3 -5 1 -10 -4 -10 -6
0 -11 5 -11 10 0 6 2 10 4 10 3 0 8 -4 11 -10z m0 -1920 c3 -5 1 -10 -4 -10
-6 0 -11 5 -11 10 0 6 2 10 4 10 3 0 8 -4 11 -10z"/>
<path d="M8545 4929 c-11 -4 -15 -8 -10 -9 6 -1 0 -5 -12 -10 -15 -6 -23 -18
-23 -32 0 -19 -2 -20 -10 -8 -7 11 -10 12 -10 2 0 -17 -58 -76 -82 -85 -10 -3
-18 -14 -18 -22 0 -9 -4 -13 -10 -10 -5 3 -10 0 -10 -8 0 -8 -16 -28 -35 -44
-19 -17 -35 -36 -35 -44 0 -11 -2 -11 -10 1 -5 8 -10 10 -10 4 0 -16 -36 -55
-44 -47 -6 6 -10 -12 -7 -30 1 -5 -3 -6 -9 -2 -6 3 -14 -4 -19 -17 -4 -13 -12
-23 -17 -23 -5 0 -8 -4 -6 -8 1 -5 -1 -6 -6 -3 -10 6 -42 -29 -42 -47 0 -8 -4
-7 -10 3 -9 13 -10 13 -11 0 -1 -8 -1 -18 0 -22 0 -4 -5 -5 -13 -2 -8 3 -17 0
-22 -7 -4 -7 -3 -10 3 -6 5 3 10 0 10 -7 0 -8 -8 -11 -20 -8 -14 3 -18 1 -13
-6 4 -7 1 -12 -8 -12 -10 0 -13 -6 -10 -15 4 -9 0 -15 -10 -15 -9 0 -16 -5
-16 -11 0 -5 -4 -7 -10 -4 -6 3 -10 -4 -10 -17 0 -18 -2 -20 -10 -8 -7 11 -10
11 -10 2 0 -8 -5 -10 -12 -6 -9 5 -9 2 1 -9 10 -12 10 -17 2 -17 -16 0 -41
-25 -41 -42 0 -10 -3 -9 -10 2 -9 14 -14 7 -11 -13 1 -5 -8 -11 -19 -14 -11
-3 -17 -9 -14 -14 3 -5 0 -9 -5 -9 -6 0 -11 -7 -11 -15 0 -8 -6 -14 -12 -12
-7 1 -12 -3 -11 -10 2 -7 -4 -10 -12 -7 -9 4 -15 0 -15 -10 0 -9 -4 -16 -10
-16 -5 0 -10 -7 -10 -15 0 -8 -7 -15 -16 -15 -9 0 -12 -5 -8 -12 5 -7 2 -9 -8
-5 -10 3 -19 -3 -27 -19 -7 -15 -16 -22 -23 -18 -7 5 -8 3 -4 -5 5 -8 0 -14
-13 -18 -12 -3 -21 -11 -21 -17 0 -13 -28 -39 -53 -49 -9 -3 -17 -14 -17 -22
0 -9 -4 -13 -10 -10 -5 3 -10 1 -10 -6 0 -7 -18 -29 -39 -50 -22 -20 -37 -40
-34 -43 4 -3 0 -6 -8 -6 -8 0 -23 -11 -33 -25 -10 -14 -26 -25 -34 -25 -8 0
-13 -3 -9 -6 8 -9 -25 -44 -43 -44 -13 0 -13 -1 0 -10 13 -8 13 -10 -2 -10
-10 0 -24 -12 -32 -27 -13 -24 -15 -25 -16 -8 l-1 20 -8 -20 c-5 -11 -6 -23
-4 -28 2 -4 1 -7 -4 -6 -20 3 -33 -2 -31 -13 2 -7 -5 -12 -15 -12 -15 2 -16
-1 -5 -14 8 -9 8 -13 2 -9 -7 4 -14 0 -18 -8 -3 -8 -13 -15 -21 -15 -9 0 -13
-4 -10 -10 3 -5 1 -10 -4 -10 -6 0 -11 -7 -11 -15 0 -8 -4 -15 -9 -15 -15 0
-61 -46 -61 -61 0 -11 -2 -11 -10 1 -9 13 -10 13 -11 0 -1 -8 -1 -19 0 -24 1
-5 -5 -6 -14 -3 -14 6 -20 -4 -16 -26 1 -5 -3 -6 -9 -2 -5 3 -10 -1 -10 -10 0
-9 -5 -13 -10 -10 -6 3 -13 -1 -16 -9 -3 -9 -10 -13 -15 -10 -5 3 -9 -2 -9
-11 0 -8 -7 -18 -15 -21 -8 -4 -12 -11 -8 -17 4 -6 0 -8 -10 -4 -11 4 -17 1
-17 -9 0 -8 -4 -12 -10 -9 -5 3 -10 -3 -10 -14 0 -12 -5 -21 -11 -21 -5 0 -7
5 -3 12 5 7 3 8 -5 4 -7 -5 -10 -14 -7 -22 3 -8 2 -13 -2 -12 -14 3 -42 -14
-42 -26 0 -14 -36 -46 -51 -46 -5 0 -8 -4 -5 -9 3 -5 -1 -12 -10 -15 -8 -3
-12 -11 -9 -16 4 -6 3 -10 -2 -9 -20 4 -34 -2 -28 -12 4 -6 -2 -13 -14 -16
-11 -3 -18 -9 -15 -14 3 -5 -3 -9 -13 -9 -15 0 -16 -2 -3 -10 13 -9 13 -10 0
-10 -9 0 -22 -9 -30 -20 -8 -11 -20 -20 -27 -20 -6 0 -15 -5 -19 -12 -4 -7 -3
-8 4 -4 7 4 12 2 12 -3 0 -6 -7 -11 -16 -11 -15 0 -45 -24 -44 -35 0 -10 -38
-43 -44 -37 -3 3 -6 -2 -6 -11 0 -9 -9 -22 -20 -30 -11 -8 -17 -18 -12 -23 4
-4 -1 -2 -11 6 -10 7 -17 9 -16 4 4 -21 -2 -35 -11 -29 -5 3 -10 -3 -10 -14 0
-12 -5 -21 -11 -21 -12 0 -59 -50 -59 -62 0 -5 -9 -8 -21 -8 -12 0 -23 -8 -26
-20 -3 -11 -9 -18 -13 -15 -4 3 -10 -4 -13 -15 -3 -11 -13 -20 -24 -20 -15 0
-16 -2 -3 -10 13 -8 13 -10 -1 -10 -9 0 -24 -11 -33 -25 -9 -14 -23 -25 -32
-25 -8 0 -12 -4 -9 -10 3 -5 1 -10 -4 -10 -6 0 -11 -8 -11 -17 0 -15 -2 -16
-10 -3 -9 13 -10 13 -10 0 0 -17 -34 -50 -51 -50 -6 0 -9 -7 -5 -15 3 -8 2
-14 -2 -12 -11 3 -62 -50 -62 -65 0 -9 -3 -9 -10 2 -9 13 -10 13 -10 0 0 -18
-35 -51 -44 -43 -6 6 -10 -13 -7 -30 1 -5 -3 -6 -9 -2 -5 3 -13 -1 -16 -9 -3
-9 -10 -13 -15 -10 -5 3 -9 -2 -9 -10 0 -9 -4 -16 -10 -16 -5 0 -10 -7 -10
-15 0 -8 -5 -15 -11 -15 -6 0 -17 -7 -26 -15 -8 -8 -20 -12 -26 -8 -7 4 -5 -2
3 -12 9 -11 10 -16 3 -11 -8 4 -13 2 -13 -4 0 -6 -6 -8 -12 -4 -7 4 -10 4 -6
-1 4 -4 3 -17 -3 -28 -8 -14 -8 -18 0 -13 6 4 14 0 17 -8 3 -9 13 -16 21 -16
8 0 11 -4 8 -10 -3 -5 0 -10 8 -10 8 0 17 -7 21 -15 3 -8 10 -15 16 -15 6 0
22 -11 36 -25 14 -14 29 -25 35 -25 6 0 7 -5 4 -10 -3 -6 1 -10 10 -10 9 0 13
-5 10 -10 -3 -6 3 -10 15 -10 12 0 19 -3 17 -8 -3 -4 1 -12 8 -19 11 -10 15
-10 18 0 3 7 6 4 6 -5 1 -10 8 -18 17 -18 8 0 12 -4 9 -10 -3 -5 1 -10 9 -10
9 0 16 -7 16 -15 0 -8 3 -14 8 -14 4 1 16 1 27 0 17 -1 18 -3 5 -11 -12 -8
-11 -10 8 -10 12 0 22 -4 22 -9 0 -5 9 -13 20 -16 11 -4 18 -11 15 -16 -4 -5
1 -9 10 -9 9 0 13 -5 10 -10 -4 -6 -3 -10 2 -9 20 3 44 -2 40 -8 -6 -13 28
-40 47 -37 12 2 16 -2 12 -12 -3 -8 1 -14 10 -14 8 0 22 -7 31 -15 8 -8 19
-12 25 -9 7 4 8 2 4 -4 -4 -7 -3 -12 3 -12 6 0 21 -11 34 -24 14 -14 28 -22
31 -19 3 4 6 1 6 -6 0 -7 5 -9 10 -6 6 3 10 1 10 -5 0 -6 4 -9 8 -6 5 3 14 -4
22 -14 8 -10 17 -17 22 -14 4 3 8 -3 8 -13 0 -15 2 -16 10 -3 6 10 10 11 10 3
0 -7 7 -13 15 -13 8 0 19 -9 25 -21 7 -11 14 -18 18 -15 3 4 17 -4 30 -16 14
-13 22 -17 18 -10 -4 6 -2 12 3 12 6 0 11 -7 11 -15 0 -14 12 -20 33 -16 5 1
6 -3 2 -9 -3 -5 3 -10 14 -10 12 0 21 -4 21 -9 0 -5 9 -11 21 -14 12 -3 18
-10 15 -16 -4 -6 2 -8 14 -6 13 2 20 -1 20 -11 0 -8 3 -13 8 -13 23 4 42 -3
39 -13 -1 -8 7 -12 22 -10 14 2 21 0 17 -6 -3 -6 3 -13 14 -17 11 -3 20 -12
20 -18 0 -7 4 -6 10 3 6 10 10 11 10 3 0 -7 10 -13 23 -13 18 0 19 -2 7 -10
-12 -8 -9 -10 13 -10 15 0 30 -7 33 -15 4 -8 10 -13 14 -10 5 3 14 -1 22 -8 7
-7 18 -14 23 -15 31 -6 45 -15 39 -24 -4 -6 -2 -8 4 -5 12 8 44 -2 38 -12 -3
-4 5 -8 17 -8 12 -1 23 -7 25 -13 2 -5 15 -10 28 -10 14 0 22 -4 19 -10 -5 -9
24 -15 49 -11 5 1 4 -5 -3 -13 -11 -13 -10 -15 8 -11 11 2 27 -2 35 -10 7 -8
16 -11 20 -8 3 4 6 1 6 -5 0 -6 7 -9 15 -6 9 4 15 0 15 -9 0 -10 8 -14 24 -13
14 2 27 -3 30 -10 3 -8 19 -14 35 -14 16 0 31 -6 34 -15 4 -8 15 -12 26 -10
11 2 24 -1 27 -7 5 -7 2 -8 -7 -3 -8 5 -11 4 -6 -1 5 -5 18 -9 30 -9 12 -1 21
-7 19 -13 -1 -7 3 -12 10 -10 23 4 68 -12 68 -25 0 -8 4 -7 10 3 7 11 10 11
10 2 0 -7 4 -11 9 -8 5 3 11 -1 15 -9 3 -9 18 -15 36 -15 16 0 30 -4 30 -10 0
-5 12 -10 26 -10 17 0 23 -4 18 -13 -6 -9 -4 -9 8 1 11 9 17 9 20 2 2 -6 13
-12 25 -13 12 0 20 -4 17 -8 -2 -4 0 -10 6 -14 5 -3 10 -1 10 5 0 6 5 8 13 3
6 -4 19 -8 27 -10 8 -1 16 -7 18 -13 3 -8 8 -7 18 1 12 9 13 9 9 -3 -4 -10 2
-14 22 -14 19 1 27 -4 25 -13 -3 -12 0 -12 12 -1 9 7 16 8 16 2 0 -5 13 -9 30
-8 20 1 26 -1 20 -9 -6 -8 3 -12 33 -14 23 -1 44 -6 47 -11 3 -6 22 -11 42
-12 20 -2 34 -6 31 -10 -2 -5 4 -8 14 -8 11 0 28 -7 39 -15 10 -8 24 -14 29
-15 6 0 3 4 -5 10 -8 5 -12 12 -8 15 3 3 13 -1 21 -10 9 -8 30 -15 47 -15 18
0 29 -4 25 -10 -4 -6 8 -10 27 -11 47 -2 50 -3 76 -17 18 -10 22 -10 22 0 0
10 3 10 9 -1 5 -8 16 -11 25 -8 9 4 16 2 16 -4 0 -6 5 -7 10 -4 6 3 10 1 10
-4 0 -6 8 -11 18 -11 14 0 15 2 2 10 -9 6 -10 10 -3 10 6 0 15 -4 18 -10 3 -5
17 -10 31 -10 14 0 23 -4 20 -8 -3 -5 1 -9 9 -9 8 0 12 3 10 7 -2 4 2 7 10 7
8 0 12 -4 9 -9 -5 -8 1 -9 68 -12 20 -1 41 -6 45 -10 5 -5 2 -6 -6 -1 -10 6
-12 4 -7 -4 6 -9 11 -9 24 1 9 8 13 8 9 2 -5 -8 8 -12 41 -13 70 -2 82 -4 76
-13 -4 -7 47 -11 129 -11 9 0 17 -6 17 -15 0 -11 3 -12 13 -3 8 6 17 7 21 3 4
-4 26 -8 49 -8 57 -2 59 -3 53 -12 -2 -4 4 -8 14 -8 10 0 16 4 14 8 -3 4 0 8
5 8 6 0 11 -4 11 -10 0 -5 7 -10 16 -10 9 0 12 5 8 13 -6 9 -4 9 7 -1 7 -6 37
-12 66 -12 29 0 53 -4 53 -10 0 -5 5 -10 11 -10 5 0 8 3 5 8 -2 4 9 8 26 9 21
0 26 -2 17 -8 -10 -6 -4 -9 19 -9 24 0 31 3 26 12 -6 10 -4 10 8 0 11 -8 38
-12 79 -10 l63 3 1 37 c2 29 -1 35 -14 31 -13 -5 -14 -3 -3 8 14 15 17 63 2
54 -6 -3 -7 1 -4 9 3 9 10 14 14 11 10 -6 1 35 -11 50 -4 6 -4 17 1 25 13 20
12 33 0 25 -6 -3 -7 1 -4 9 3 9 10 14 14 11 5 -3 5 7 1 22 -4 16 -6 34 -4 41
3 7 0 18 -5 25 -7 8 -7 18 -2 27 13 20 12 33 0 25 -6 -3 -7 1 -4 9 3 9 10 14
14 11 5 -3 5 8 0 25 -5 17 -5 32 1 35 5 4 9 12 8 18 0 9 -2 9 -6 0 -2 -7 -9
-13 -15 -13 -6 0 -3 11 6 24 10 15 12 27 6 31 -6 3 -10 11 -10 16 0 6 4 7 10
4 6 -3 7 1 4 9 -3 9 -10 13 -15 10 -5 -3 -6 2 -3 10 3 9 10 13 15 10 5 -3 6 2
3 10 -3 9 -11 13 -18 9 -6 -3 -6 -1 2 8 14 15 17 63 2 54 -6 -3 -7 1 -4 9 3 9
9 14 14 11 4 -2 5 7 2 20 -2 14 -8 28 -13 31 -5 3 -4 15 3 27 6 12 13 36 13
54 2 25 -1 30 -14 26 -13 -5 -14 -3 -3 8 14 15 17 63 2 54 -6 -3 -7 1 -4 9 3
9 9 14 13 12 3 -2 7 8 7 22 1 15 -1 21 -3 15 -3 -7 -9 -13 -15 -13 -6 0 -3 11
6 24 10 15 12 27 6 31 -6 3 -10 11 -10 16 0 6 4 7 10 4 6 -3 7 1 4 9 -3 9 -10
13 -15 10 -5 -3 -6 2 -3 10 3 9 10 13 15 10 5 -3 6 2 3 10 -3 9 -10 13 -16 10
-5 -3 -4 3 3 14 10 15 10 24 1 34 -7 9 -8 19 -2 28 13 20 12 33 0 25 -6 -3 -7
1 -4 9 3 9 10 14 14 11 5 -3 5 7 1 22 -4 16 -6 34 -4 41 3 7 0 18 -5 25 -7 8
-7 18 -2 27 13 20 12 33 0 25 -6 -3 -7 1 -4 9 3 9 11 13 17 9 6 -4 7 -1 2 7
-4 6 -7 32 -7 56 1 26 -3 42 -8 39 -6 -3 -7 1 -4 9 3 9 9 14 14 11 4 -2 5 7 2
20 -2 14 -8 28 -13 31 -5 3 -4 15 3 27 6 12 13 36 13 54 2 25 -1 30 -14 26
-13 -5 -14 -3 -3 8 14 15 17 63 2 54 -6 -3 -7 1 -4 9 3 9 9 14 13 12 4 -3 5
11 3 30 -2 18 -8 31 -13 28 -5 -3 -6 2 -3 10 3 9 9 14 14 11 4 -2 5 7 2 20 -2
14 -8 28 -13 31 -5 3 -4 15 3 27 6 12 13 36 13 54 2 25 -1 30 -14 26 -13 -5
-14 -3 -3 8 14 15 17 63 2 54 -6 -3 -7 1 -4 9 3 9 10 14 14 11 10 -6 1 35 -11
50 -4 6 -4 17 1 25 13 20 12 33 0 25 -6 -3 -7 1 -4 9 3 9 10 14 14 11 5 -3 5
7 1 22 -4 16 -6 34 -4 41 3 7 0 18 -5 25 -7 8 -7 18 -2 27 13 20 12 33 0 25
-6 -3 -7 1 -4 9 3 9 10 14 14 11 5 -3 5 8 0 25 -5 17 -5 32 1 35 5 4 9 12 8
18 0 9 -2 9 -6 0 -2 -7 -9 -13 -15 -13 -6 0 -3 11 6 24 10 15 12 27 6 31 -6 3
-10 11 -10 16 0 6 4 7 10 4 6 -3 7 1 4 9 -3 9 -10 13 -15 10 -5 -3 -6 2 -3 10
3 9 10 13 15 10 5 -3 6 2 3 10 -3 9 -11 13 -18 9 -6 -3 -6 -1 2 8 14 15 17 63
2 54 -6 -3 -7 1 -4 9 3 9 9 14 14 11 4 -2 5 7 2 20 -2 14 -8 28 -13 31 -5 3
-4 15 3 27 6 12 13 36 13 54 2 25 -1 30 -14 26 -13 -5 -14 -3 -3 8 14 15 17
63 2 54 -6 -3 -7 1 -4 9 3 9 9 14 13 12 3 -2 7 8 7 22 1 15 -1 21 -3 15 -3 -7
-9 -13 -15 -13 -6 0 -3 11 6 24 10 15 12 27 6 31 -6 3 -10 11 -10 16 0 6 4 7
10 4 6 -3 7 1 4 9 -3 9 -10 13 -15 10 -5 -3 -6 2 -3 10 3 9 10 13 15 10 5 -3
6 2 3 10 -3 9 -11 13 -18 9 -6 -4 -5 1 3 11 11 13 12 22 4 35 -7 11 -8 23 -2
32 12 19 11 32 -1 24 -6 -3 -7 1 -4 9 3 9 10 14 14 11 5 -3 5 7 1 22 -4 16 -6
34 -4 41 3 7 0 18 -5 25 -7 8 -7 18 -2 27 13 20 12 33 0 25 -6 -3 -7 1 -4 9 3
9 11 13 17 9 6 -4 7 -1 2 7 -4 6 -7 32 -7 56 1 26 -3 42 -8 39 -6 -3 -7 1 -4
9 3 9 9 14 14 11 4 -2 5 7 2 20 -2 14 -8 28 -13 31 -5 3 -4 15 3 27 6 12 13
36 13 54 2 25 -1 30 -14 26 -13 -5 -14 -3 -3 8 14 15 17 63 2 54 -6 -3 -7 1
-4 9 3 9 9 14 13 12 4 -3 5 11 3 30 -2 18 -8 31 -13 28 -5 -3 -6 2 -3 10 3 9
10 14 14 11 10 -6 1 35 -11 50 -4 6 -4 17 1 25 13 20 12 33 0 25 -6 -3 -7 1
-4 9 3 9 11 13 17 9 6 -3 7 -1 3 5 -4 7 -20 12 -37 12 -16 0 -29 5 -29 10 0 6
-5 10 -11 10 -5 0 -8 -4 -5 -8 3 -5 -1 -9 -9 -9 -8 0 -12 4 -9 9 3 4 -6 9 -20
9 -52 3 -61 4 -76 14 -8 5 -25 9 -37 10 -12 0 -25 3 -28 7 -4 4 -17 3 -28 -3
-13 -7 -17 -7 -13 -1 9 14 -8 23 -44 24 -17 1 -30 5 -30 10 0 4 -18 8 -40 8
-25 0 -43 5 -46 14 -3 7 -16 12 -29 11 -14 -2 -26 3 -29 12 -4 9 -14 13 -26
10 -11 -3 -20 -1 -20 5 0 5 -4 6 -10 3 -5 -3 -10 -1 -10 6 0 8 -4 8 -15 -1
-13 -11 -14 -10 -9 6 4 10 4 16 -1 12 -4 -4 -14 -3 -22 3 -10 9 -13 8 -13 0 0
-7 -5 -9 -10 -6 -6 4 -8 11 -4 16 3 6 0 10 -7 8 -27 -3 -40 1 -34 11 6 10 -5
12 -53 13 -12 0 -20 2 -17 5 3 3 -2 14 -11 24 -14 15 -20 16 -32 5 -13 -9 -14
-9 -8 1 5 8 0 12 -14 12 -12 0 -19 4 -16 8 2 4 -5 9 -16 9 -12 1 -24 7 -28 12
-3 6 -16 12 -28 14 -12 2 -25 7 -29 12 -5 4 -2 5 5 1 6 -4 12 -2 12 3 0 6 -11
11 -24 11 -13 0 -26 5 -28 10 -2 6 -13 12 -25 13 -16 1 -19 4 -12 14 8 9 6 11
-10 8 -12 -2 -21 0 -21 4 0 12 -48 42 -70 44 -10 1 -16 7 -13 14 3 8 -3 13
-16 13 -12 0 -21 5 -21 10 0 6 -7 10 -16 10 -8 0 -13 4 -10 9 8 12 -25 19 -49
10z m-135 -153 c0 -3 -4 -8 -10 -11 -5 -3 -10 -1 -10 4 0 6 5 11 10 11 6 0 10
-2 10 -4z m595 -96 c3 -5 1 -10 -4 -10 -6 0 -11 5 -11 10 0 6 2 10 4 10 3 0 8
-4 11 -10z m589 -208 c3 -5 -1 -9 -9 -9 -8 0 -12 4 -9 9 3 4 7 8 9 8 2 0 6 -4
9 -8z m196 -352 c0 -5 -5 -10 -11 -10 -5 0 -7 5 -4 10 3 6 8 10 11 10 2 0 4
-4 4 -10z m0 -800 c0 -5 -5 -10 -11 -10 -5 0 -7 5 -4 10 3 6 8 10 11 10 2 0 4
-4 4 -10z m0 -800 c0 -5 -5 -10 -11 -10 -5 0 -7 5 -4 10 3 6 8 10 11 10 2 0 4
-4 4 -10z m0 -320 c0 -5 -5 -10 -11 -10 -5 0 -7 5 -4 10 3 6 8 10 11 10 2 0 4
-4 4 -10z m0 -800 c0 -5 -5 -10 -11 -10 -5 0 -7 5 -4 10 3 6 8 10 11 10 2 0 4
-4 4 -10z m0 -800 c0 -5 -5 -10 -11 -10 -5 0 -7 5 -4 10 3 6 8 10 11 10 2 0 4
-4 4 -10z"/>
<path d="M10595 4321 c-3 -5 -2 -12 3 -15 5 -3 9 1 9 9 0 17 -3 19 -12 6z"/>
<path d="M10595 4001 c-3 -5 -2 -12 3 -15 5 -3 9 1 9 9 0 17 -3 19 -12 6z"/>
<path d="M10595 3441 c-3 -5 -2 -12 3 -15 5 -3 9 1 9 9 0 17 -3 19 -12 6z"/>
<path d="M10595 3201 c-3 -5 -2 -12 3 -15 5 -3 9 1 9 9 0 17 -3 19 -12 6z"/>
<path d="M6369 2763 c-13 -16 -12 -17 4 -4 9 7 17 15 17 17 0 8 -8 3 -21 -13z"/>
<path d="M10595 2401 c-3 -5 -2 -12 3 -15 5 -3 9 1 9 9 0 17 -3 19 -12 6z"/>
<path d="M10595 2081 c-3 -5 -2 -12 3 -15 5 -3 9 1 9 9 0 17 -3 19 -12 6z"/>
<path d="M10595 1521 c-3 -5 -2 -12 3 -15 5 -3 9 1 9 9 0 17 -3 19 -12 6z"/>
<path d="M10595 1281 c-3 -5 -2 -12 3 -15 5 -3 9 1 9 9 0 17 -3 19 -12 6z"/>
<path d="M9028 623 c7 -3 16 -2 19 1 4 3 -2 6 -13 5 -11 0 -14 -3 -6 -6z"/>
<path d="M9148 603 c7 -3 16 -2 19 1 4 3 -2 6 -13 5 -11 0 -14 -3 -6 -6z"/>
</g>
</svg>
